<svg version="1.1" viewBox="0.0 0.0 600.0 371.0" fill="none" stroke="none" stroke-linecap="square" stroke-miterlimit="10" width="600" height="371" xmlns:xlink="http://www.w3.org/1999/xlink" xmlns="http://www.w3.org/2000/svg"><path fill="#ffffff" d="M0 0L600.0 0L600.0 371.0L0 371.0L0 0Z" fill-rule="nonzero"/><path fill="#ffffff" d="M18.55 54.916668L581.45 54.916668L581.45 352.44998L18.55 352.44998L18.55 54.916668Z" fill-rule="nonzero"/><path stroke="#cccccc" stroke-width="1.0" stroke-linecap="butt" d="M300.0 204.0C300.0 204.0 300.0 204.0 300.0 204.0C300.0 204.0 300.0 204.0 300.0 204.0C300.0 204.0 300.0 204.0 300.0 204.0C300.0 204.0 300.0 204.0 300.0 204.0" fill-rule="nonzero"/><path fill="#000000" d="M297.0625 196.04688L297.0625 197.35938Q297.0625 198.40625 296.875 199.125Q296.6875 199.84375 296.32812 200.28125Q295.98438 200.71875 295.48438 200.92188Q295.0 201.125 294.375 201.125Q293.89062 201.125 293.46875 201.0Q293.04688 200.875 292.71875 200.60938Q292.39062 200.32812 292.15625 199.89062Q291.92188 199.45312 291.79688 198.82812Q291.67188 198.1875 291.67188 197.35938L291.67188 196.04688Q291.67188 195.0 291.85938 194.29688Q292.0625 193.59375 292.40625 193.15625Q292.76562 192.71875 293.25 192.53125Q293.75 192.34375 294.35938 192.34375Q294.85938 192.34375 295.28125 192.46875Q295.70312 192.59375 296.03125 192.85938Q296.35938 193.10938 296.57812 193.54688Q296.8125 193.96875 296.9375 194.59375Q297.0625 195.21875 297.0625 196.04688ZM295.96875 197.53125L295.96875 195.875Q295.96875 195.29688 295.90625 194.85938Q295.84375 194.42188 295.70312 194.10938Q295.57812 193.79688 295.375 193.60938Q295.1875 193.42188 294.9375 193.32812Q294.6875 193.23438 294.35938 193.23438Q293.98438 193.23438 293.67188 193.375Q293.375 193.51562 293.17188 193.82812Q292.96875 194.14062 292.85938 194.65625Q292.76562 195.15625 292.76562 195.875L292.76562 197.53125Q292.76562 198.10938 292.82812 198.54688Q292.90625 198.98438 293.03125 199.3125Q293.17188 199.625 293.35938 199.82812Q293.5625 200.03125 293.8125 200.125Q294.0625 200.21875 294.375 200.21875Q294.78125 200.21875 295.07812 200.07812Q295.375 199.92188 295.57812 199.59375Q295.78125 199.26562 295.875 198.76562Q295.96875 198.25 295.96875 197.53125Z" fill-rule="nonzero"/><path stroke="#cccccc" stroke-width="1.0" stroke-linecap="butt" d="M329.19168 204.0C329.19168 187.87788 316.1221 174.80833 300.0 174.80833C283.8779 174.80833 270.80832 187.87788 270.80832 204.0C270.80832 220.12212 283.8779 233.19167 300.0 233.19167C316.1221 233.19167 329.19168 220.12212 329.19168 204.0" fill-rule="nonzero"/><path fill="#000000" d="M290.29688 170.91771L290.29688 171.80833L284.71875 171.80833L284.71875 171.02708L287.51562 167.91771Q288.03125 167.33958 288.3125 166.94896Q288.59375 166.54271 288.70312 166.23021Q288.82812 165.90208 288.82812 165.57396Q288.82812 165.15208 288.65625 164.80833Q288.48438 164.46458 288.14062 164.26146Q287.8125 164.04271 287.32812 164.04271Q286.76562 164.04271 286.39062 164.27708Q286.01562 164.49583 285.82812 164.88646Q285.64062 165.27708 285.64062 165.77708L284.54688 165.77708Q284.54688 165.05833 284.85938 164.46458Q285.1875 163.87083 285.79688 163.51146Q286.42188 163.15208 287.32812 163.15208Q288.14062 163.15208 288.71875 163.44896Q289.29688 163.73021 289.59375 164.24583Q289.90625 164.74583 289.90625 165.43333Q289.90625 165.80833 289.78125 166.19896Q289.65625 166.57396 289.4375 166.96458Q289.21875 167.33958 288.92188 167.71458Q288.64062 168.07396 288.3125 168.43333L286.01562 170.91771L290.29688 170.91771ZM297.0625 166.85521L297.0625 168.16771Q297.0625 169.21458 296.875 169.93333Q296.6875 170.65208 296.32812 171.08958Q295.98438 171.52708 295.48438 171.73021Q295.0 171.93333 294.375 171.93333Q293.89062 171.93333 293.46875 171.80833Q293.04688 171.68333 292.71875 171.41771Q292.39062 171.13646 292.15625 170.69896Q291.92188 170.26146 291.79688 169.63646Q291.67188 168.99583 291.67188 168.16771L291.67188 166.85521Q291.67188 165.80833 291.85938 165.10521Q292.0625 164.40208 292.40625 163.96458Q292.76562 163.52708 293.25 163.33958Q293.75 163.15208 294.35938 163.15208Q294.85938 163.15208 295.28125 163.27708Q295.70312 163.40208 296.03125 163.66771Q296.35938 163.91771 296.57812 164.35521Q296.8125 164.77708 296.9375 165.40208Q297.0625 166.02708 297.0625 166.85521ZM295.96875 168.33958L295.96875 166.68333Q295.96875 166.10521 295.90625 165.66771Q295.84375 165.23021 295.70312 164.91771Q295.57812 164.60521 295.375 164.41771Q295.1875 164.23021 294.9375 164.13646Q294.6875 164.04271 294.35938 164.04271Q293.98438 164.04271 293.67188 164.18333Q293.375 164.32396 293.17188 164.63646Q292.96875 164.94896 292.85938 165.46458Q292.76562 165.96458 292.76562 166.68333L292.76562 168.33958Q292.76562 168.91771 292.82812 169.35521Q292.90625 169.79271 293.03125 170.12083Q293.17188 170.43333 293.35938 170.63646Q293.5625 170.83958 293.8125 170.93333Q294.0625 171.02708 294.375 171.02708Q294.78125 171.02708 295.07812 170.88646Q295.375 170.73021 295.57812 170.40208Q295.78125 170.07396 295.875 169.57396Q295.96875 169.05833 295.96875 168.33958Z" fill-rule="nonzero"/><path stroke="#cccccc" stroke-width="1.0" stroke-linecap="butt" d="M358.38333 204.0C358.38333 171.75577 332.24423 145.61667 300.0 145.61667C267.75577 145.61667 241.61667 171.75577 241.61667 204.0C241.61667 236.24423 267.75577 262.38333 300.0 262.38333C332.24423 262.38333 358.38333 236.24423 358.38333 204.0" fill-rule="nonzero"/><path fill="#000000" d="M290.46875 139.74167L290.46875 140.6323L284.3125 140.6323L284.3125 139.99167L288.125 134.08542L289.01562 134.08542L288.0625 135.78854L285.54688 139.74167L290.46875 139.74167ZM289.28125 134.08542L289.28125 142.61667L288.20312 142.61667L288.20312 134.08542L289.28125 134.08542ZM297.0625 137.66354L297.0625 138.97604Q297.0625 140.02292 296.875 140.74167Q296.6875 141.46042 296.32812 141.89792Q295.98438 142.33542 295.48438 142.53854Q295.0 142.74167 294.375 142.74167Q293.89062 142.74167 293.46875 142.61667Q293.04688 142.49167 292.71875 142.22604Q292.39062 141.9448 292.15625 141.5073Q291.92188 141.0698 291.79688 140.4448Q291.67188 139.80417 291.67188 138.97604L291.67188 137.66354Q291.67188 136.61667 291.85938 135.91354Q292.0625 135.21042 292.40625 134.77292Q292.76562 134.33542 293.25 134.14792Q293.75 133.96042 294.35938 133.96042Q294.85938 133.96042 295.28125 134.08542Q295.70312 134.21042 296.03125 134.47604Q296.35938 134.72604 296.57812 135.16354Q296.8125 135.58542 296.9375 136.21042Q297.0625 136.83542 297.0625 137.66354ZM295.96875 139.14792L295.96875 137.49167Q295.96875 136.91354 295.90625 136.47604Q295.84375 136.03854 295.70312 135.72604Q295.57812 135.41354 295.375 135.22604Q295.1875 135.03854 294.9375 134.9448Q294.6875 134.85104 294.35938 134.85104Q293.98438 134.85104 293.67188 134.99167Q293.375 135.1323 293.17188 135.4448Q292.96875 135.7573 292.85938 136.27292Q292.76562 136.77292 292.76562 137.49167L292.76562 139.14792Q292.76562 139.72604 292.82812 140.16354Q292.90625 140.60104 293.03125 140.92917Q293.17188 141.24167 293.35938 141.4448Q293.5625 141.64792 293.8125 141.74167Q294.0625 141.83542 294.375 141.83542Q294.78125 141.83542 295.07812 141.6948Q295.375 141.53854 295.57812 141.21042Q295.78125 140.8823 295.875 140.3823Q295.96875 139.86667 295.96875 139.14792Z" fill-rule="nonzero"/><path stroke="#cccccc" stroke-width="1.0" stroke-linecap="butt" d="M387.575 204.0C387.575 155.63367 348.36633 116.425 300.0 116.425C251.63367 116.425 212.425 155.63367 212.425 204.0C212.425 252.36633 251.63367 291.575 300.0 291.575C348.36633 291.575 387.575 252.36633 387.575 204.0" fill-rule="nonzero"/><path fill="#000000" d="M288.875 104.87813L288.96875 104.87813L288.96875 105.8L288.875 105.8Q288.01562 105.8 287.42188 106.08125Q286.84375 106.3625 286.5 106.83125Q286.17188 107.28438 286.01562 107.87813Q285.875 108.45625 285.875 109.05L285.875 110.3Q285.875 110.8625 286.0 111.3Q286.14062 111.7375 286.375 112.05Q286.60938 112.34688 286.90625 112.50313Q287.20312 112.64375 287.51562 112.64375Q287.89062 112.64375 288.1875 112.50313Q288.48438 112.3625 288.6875 112.09688Q288.89062 111.83125 288.98438 111.4875Q289.09375 111.12813 289.09375 110.69063Q289.09375 110.31563 289.0 109.95625Q288.90625 109.59688 288.71875 109.33125Q288.53125 109.05 288.23438 108.89375Q287.9375 108.72188 287.54688 108.72188Q287.09375 108.72188 286.70312 108.94063Q286.3125 109.15938 286.0625 109.51875Q285.8125 109.87813 285.78125 110.28438L285.20312 110.28438Q285.29688 109.62813 285.51562 109.15938Q285.73438 108.69063 286.07812 108.39375Q286.42188 108.09688 286.82812 107.97188Q287.25 107.83125 287.71875 107.83125Q288.35938 107.83125 288.8125 108.08125Q289.28125 108.31563 289.57812 108.72188Q289.89062 109.1125 290.03125 109.6125Q290.17188 110.1125 290.17188 110.64375Q290.17188 111.2375 290.0 111.76875Q289.82812 112.3 289.48438 112.70625Q289.15625 113.09688 288.65625 113.33125Q288.17188 113.55 287.51562 113.55Q286.82812 113.55 286.3125 113.26875Q285.79688 112.97188 285.45312 112.50313Q285.125 112.01875 284.95312 111.44063Q284.78125 110.8625 284.78125 110.26875L284.78125 109.75313Q284.78125 108.84688 284.95312 107.9875Q285.14062 107.1125 285.59375 106.40938Q286.04688 105.70625 286.84375 105.3Q287.64062 104.87813 288.875 104.87813ZM297.0625 108.47188L297.0625 109.78438Q297.0625 110.83125 296.875 111.55Q296.6875 112.26875 296.32812 112.70625Q295.98438 113.14375 295.48438 113.34688Q295.0 113.55 294.375 113.55Q293.89062 113.55 293.46875 113.425Q293.04688 113.3 292.71875 113.03438Q292.39062 112.75313 292.15625 112.31563Q291.92188 111.87813 291.79688 111.25313Q291.67188 110.6125 291.67188 109.78438L291.67188 108.47188Q291.67188 107.425 291.85938 106.72188Q292.0625 106.01875 292.40625 105.58125Q292.76562 105.14375 293.25 104.95625Q293.75 104.76875 294.35938 104.76875Q294.85938 104.76875 295.28125 104.89375Q295.70312 105.01875 296.03125 105.28438Q296.35938 105.53438 296.57812 105.97188Q296.8125 106.39375 296.9375 107.01875Q297.0625 107.64375 297.0625 108.47188ZM295.96875 109.95625L295.96875 108.3Q295.96875 107.72188 295.90625 107.28438Q295.84375 106.84688 295.70312 106.53438Q295.57812 106.22188 295.375 106.03438Q295.1875 105.84688 294.9375 105.75313Q294.6875 105.65938 294.35938 105.65938Q293.98438 105.65938 293.67188 105.8Q293.375 105.94063 293.17188 106.25313Q292.96875 106.56563 292.85938 107.08125Q292.76562 107.58125 292.76562 108.3L292.76562 109.95625Q292.76562 110.53438 292.82812 110.97188Q292.90625 111.40938 293.03125 111.7375Q293.17188 112.05 293.35938 112.25313Q293.5625 112.45625 293.8125 112.55Q294.0625 112.64375 294.375 112.64375Q294.78125 112.64375 295.07812 112.50313Q295.375 112.34688 295.57812 112.01875Q295.78125 111.69063 295.875 111.19063Q295.96875 110.675 295.96875 109.95625Z" fill-rule="nonzero"/><path stroke="#cccccc" stroke-width="1.0" stroke-linecap="butt" d="M416.76666 204.0C416.76666 139.51155 364.48846 87.23333 300.0 87.23333C235.51155 87.23333 183.23334 139.51155 183.23334 204.0C183.23334 268.48846 235.51155 320.76666 300.0 320.76666C364.48846 320.76666 416.76666 268.48846 416.76666 204.0" fill-rule="nonzero"/><path fill="#000000" d="M290.09375 81.92083Q290.09375 82.70208 289.73438 83.248955Q289.375 83.780205 288.75 84.07708Q288.14062 84.35833 287.375 84.35833Q286.60938 84.35833 285.98438 84.07708Q285.375 83.780205 285.01562 83.248955Q284.65625 82.70208 284.65625 81.92083Q284.65625 81.42083 284.85938 80.998955Q285.0625 80.561455 285.42188 80.248955Q285.78125 79.936455 286.26562 79.76458Q286.76562 79.592705 287.35938 79.592705Q288.15625 79.592705 288.76562 79.88958Q289.375 80.186455 289.73438 80.717705Q290.09375 81.248955 290.09375 81.92083ZM289.0 81.905205Q289.0 81.42083 288.79688 81.061455Q288.59375 80.686455 288.21875 80.48333Q287.84375 80.280205 287.35938 80.280205Q286.85938 80.280205 286.5 80.48333Q286.14062 80.686455 285.9375 81.061455Q285.75 81.42083 285.75 81.905205Q285.75 82.38958 285.9375 82.748955Q286.14062 83.092705 286.5 83.280205Q286.875 83.45208 287.375 83.45208Q287.875 83.45208 288.23438 83.280205Q288.60938 83.092705 288.79688 82.748955Q289.0 82.38958 289.0 81.905205ZM289.89062 77.92083Q289.89062 78.54583 289.5625 79.04583Q289.23438 79.54583 288.65625 79.82708Q288.09375 80.10833 287.375 80.10833Q286.64062 80.10833 286.0625 79.82708Q285.5 79.54583 285.17188 79.04583Q284.85938 78.54583 284.85938 77.92083Q284.85938 77.17083 285.17188 76.655205Q285.5 76.13958 286.0625 75.85833Q286.64062 75.57708 287.375 75.57708Q288.10938 75.57708 288.67188 75.85833Q289.23438 76.13958 289.5625 76.655205Q289.89062 77.17083 289.89062 77.92083ZM288.8125 77.936455Q288.8125 77.51458 288.625 77.186455Q288.4375 76.85833 288.10938 76.67083Q287.79688 76.467705 287.375 76.467705Q286.9375 76.467705 286.60938 76.655205Q286.29688 76.82708 286.125 77.155205Q285.95312 77.48333 285.95312 77.936455Q285.95312 78.373955 286.125 78.70208Q286.29688 79.030205 286.625 79.217705Q286.95312 79.405205 287.375 79.405205Q287.79688 79.405205 288.10938 79.217705Q288.4375 79.030205 288.625 78.70208Q288.8125 78.373955 288.8125 77.936455ZM297.0625 79.280205L297.0625 80.592705Q297.0625 81.63958 296.875 82.35833Q296.6875 83.07708 296.32812 83.51458Q295.98438 83.95208 295.48438 84.155205Q295.0 84.35833 294.375 84.35833Q293.89062 84.35833 293.46875 84.23333Q293.04688 84.10833 292.71875 83.842705Q292.39062 83.561455 292.15625 83.123955Q291.92188 82.686455 291.79688 82.061455Q291.67188 81.42083 291.67188 80.592705L291.67188 79.280205Q291.67188 78.23333 291.85938 77.530205Q292.0625 76.82708 292.40625 76.38958Q292.76562 75.95208 293.25 75.76458Q293.75 75.57708 294.35938 75.57708Q294.85938 75.57708 295.28125 75.70208Q295.70312 75.82708 296.03125 76.092705Q296.35938 76.342705 296.57812 76.780205Q296.8125 77.20208 296.9375 77.82708Q297.0625 78.45208 297.0625 79.280205ZM295.96875 80.76458L295.96875 79.10833Q295.96875 78.530205 295.90625 78.092705Q295.84375 77.655205 295.70312 77.342705Q295.57812 77.030205 295.375 76.842705Q295.1875 76.655205 294.9375 76.561455Q294.6875 76.467705 294.35938 76.467705Q293.98438 76.467705 293.67188 76.60833Q293.375 76.748955 293.17188 77.061455Q292.96875 77.373955 292.85938 77.88958Q292.76562 78.38958 292.76562 79.10833L292.76562 80.76458Q292.76562 81.342705 292.82812 81.780205Q292.90625 82.217705 293.03125 82.54583Q293.17188 82.85833 293.35938 83.061455Q293.5625 83.26458 293.8125 83.35833Q294.0625 83.45208 294.375 83.45208Q294.78125 83.45208 295.07812 83.311455Q295.375 83.155205 295.57812 82.82708Q295.78125 82.498955 295.875 81.998955Q295.96875 81.48333 295.96875 80.76458Z" fill-rule="nonzero"/><path stroke="#cccccc" stroke-width="1.0" stroke-linecap="butt" d="M300.0 204.0L300.0 87.0" fill-rule="nonzero"/><path fill="#000000" d="M272.65625 56.71875L269.82812 64.5L268.67188 64.5L271.92188 55.96875L272.67188 55.96875L272.65625 56.71875ZM275.01562 64.5L272.1875 56.71875L272.17188 55.96875L272.90625 55.96875L276.17188 64.5L275.01562 64.5ZM274.875 61.34375L274.875 62.265625L270.07812 62.265625L270.07812 61.34375L274.875 61.34375ZM277.32812 55.5L278.40625 55.5L278.40625 63.265625L278.3125 64.5L277.32812 64.5L277.32812 55.5ZM282.6875 61.28125L282.6875 61.40625Q282.6875 62.09375 282.51562 62.6875Q282.35938 63.265625 282.04688 63.703125Q281.73438 64.140625 281.26562 64.390625Q280.8125 64.625 280.23438 64.625Q279.625 64.625 279.17188 64.421875Q278.71875 64.203125 278.40625 63.8125Q278.09375 63.421875 277.90625 62.859375Q277.71875 62.296875 277.65625 61.609375L277.65625 61.0625Q277.71875 60.359375 277.90625 59.8125Q278.09375 59.25 278.40625 58.859375Q278.71875 58.453125 279.17188 58.25Q279.625 58.046875 280.21875 58.046875Q280.8125 58.046875 281.26562 58.28125Q281.73438 58.5 282.04688 58.9375Q282.35938 59.359375 282.51562 59.953125Q282.6875 60.546875 282.6875 61.28125ZM281.60938 61.40625L281.60938 61.28125Q281.60938 60.796875 281.51562 60.390625Q281.42188 59.96875 281.23438 59.65625Q281.04688 59.328125 280.71875 59.140625Q280.40625 58.953125 279.95312 58.953125Q279.53125 58.953125 279.23438 59.09375Q278.9375 59.234375 278.71875 59.484375Q278.51562 59.71875 278.375 60.015625Q278.25 60.3125 278.1875 60.640625L278.1875 62.046875Q278.28125 62.453125 278.48438 62.84375Q278.70312 63.21875 279.0625 63.46875Q279.42188 63.703125 279.95312 63.703125Q280.39062 63.703125 280.70312 63.53125Q281.03125 63.34375 281.21875 63.03125Q281.42188 62.703125 281.51562 62.296875Q281.60938 61.875 281.60938 61.40625ZM288.01562 62.8125Q288.01562 62.578125 287.90625 62.375Q287.8125 62.171875 287.5 62.015625Q287.1875 61.84375 286.5625 61.71875Q286.03125 61.609375 285.60938 61.46875Q285.1875 61.3125 284.89062 61.09375Q284.59375 60.875 284.4375 60.578125Q284.28125 60.28125 284.28125 59.890625Q284.28125 59.515625 284.4375 59.1875Q284.60938 58.84375 284.90625 58.59375Q285.21875 58.328125 285.65625 58.1875Q286.09375 58.046875 286.625 58.046875Q287.39062 58.046875 287.92188 58.3125Q288.46875 58.578125 288.75 59.03125Q289.03125 59.484375 289.03125 60.015625L287.95312 60.015625Q287.95312 59.765625 287.79688 59.515625Q287.64062 59.265625 287.34375 59.109375Q287.04688 58.9375 286.625 58.9375Q286.17188 58.9375 285.89062 59.078125Q285.60938 59.203125 285.48438 59.421875Q285.35938 59.625 285.35938 59.859375Q285.35938 60.046875 285.42188 60.1875Q285.48438 60.3125 285.64062 60.4375Q285.79688 60.546875 286.07812 60.65625Q286.375 60.75 286.82812 60.84375Q287.60938 61.015625 288.10938 61.265625Q288.60938 61.515625 288.85938 61.875Q289.10938 62.21875 289.10938 62.734375Q289.10938 63.15625 288.92188 63.5Q288.75 63.84375 288.42188 64.09375Q288.10938 64.34375 287.65625 64.484375Q287.20312 64.625 286.65625 64.625Q285.8125 64.625 285.23438 64.328125Q284.65625 64.015625 284.35938 63.546875Q284.0625 63.0625 284.0625 62.546875L285.14062 62.546875Q285.17188 62.984375 285.40625 63.25Q285.64062 63.515625 285.96875 63.625Q286.3125 63.71875 286.65625 63.71875Q287.09375 63.71875 287.39062 63.609375Q287.70312 63.484375 287.85938 63.28125Q288.01562 63.078125 288.01562 62.8125ZM292.98438 58.15625L292.98438 58.984375L289.54688 58.984375L289.54688 58.15625L292.98438 58.15625ZM290.71875 56.625L291.79688 56.625L291.79688 62.921875Q291.79688 63.25 291.89062 63.421875Q292.0 63.578125 292.15625 63.640625Q292.3125 63.6875 292.5 63.6875Q292.625 63.6875 292.76562 63.65625Q292.92188 63.625 293.0 63.609375L293.01562 64.5Q292.875 64.546875 292.67188 64.578125Q292.46875 64.625 292.17188 64.625Q291.78125 64.625 291.4375 64.46875Q291.10938 64.296875 290.90625 63.9375Q290.71875 63.5625 290.71875 62.921875L290.71875 56.625ZM295.40625 59.15625L295.40625 64.5L294.32812 64.5L294.32812 58.15625L295.375 58.15625L295.40625 59.15625ZM297.39062 58.125L297.39062 59.125Q297.25 59.109375 297.125 59.09375Q297.01562 59.078125 296.85938 59.078125Q296.48438 59.078125 296.1875 59.203125Q295.90625 59.3125 295.70312 59.53125Q295.51562 59.734375 295.39062 60.03125Q295.28125 60.328125 295.25 60.671875L294.9375 60.84375Q294.9375 60.265625 295.04688 59.765625Q295.17188 59.265625 295.40625 58.875Q295.65625 58.484375 296.01562 58.265625Q296.39062 58.046875 296.90625 58.046875Q297.03125 58.046875 297.17188 58.078125Q297.32812 58.09375 297.39062 58.125ZM302.0625 63.421875L302.0625 60.15625Q302.0625 59.78125 301.90625 59.5Q301.76562 59.21875 301.46875 59.078125Q301.17188 58.921875 300.73438 58.921875Q300.3125 58.921875 300.0 59.0625Q299.70312 59.203125 299.53125 59.4375Q299.35938 59.65625 299.35938 59.921875L298.28125 59.921875Q298.28125 59.578125 298.45312 59.25Q298.625 58.90625 298.95312 58.640625Q299.28125 58.359375 299.75 58.203125Q300.21875 58.046875 300.79688 58.046875Q301.48438 58.046875 302.01562 58.28125Q302.54688 58.515625 302.84375 58.984375Q303.15625 59.453125 303.15625 60.15625L303.15625 63.109375Q303.15625 63.4375 303.20312 63.796875Q303.26562 64.140625 303.375 64.40625L303.375 64.5L302.23438 64.5Q302.15625 64.3125 302.10938 64.0Q302.0625 63.6875 302.0625 63.421875ZM302.25 60.65625L302.26562 61.421875L301.17188 61.421875Q300.70312 61.421875 300.34375 61.5Q299.98438 61.5625 299.73438 61.71875Q299.48438 61.859375 299.35938 62.078125Q299.23438 62.296875 299.23438 62.59375Q299.23438 62.890625 299.35938 63.140625Q299.5 63.375 299.76562 63.53125Q300.04688 63.671875 300.4375 63.671875Q300.9375 63.671875 301.3125 63.46875Q301.70312 63.25 301.92188 62.953125Q302.15625 62.640625 302.17188 62.34375L302.64062 62.875Q302.59375 63.109375 302.40625 63.421875Q302.23438 63.71875 301.92188 64.0Q301.625 64.265625 301.20312 64.453125Q300.79688 64.625 300.28125 64.625Q299.64062 64.625 299.15625 64.375Q298.67188 64.109375 298.40625 63.6875Q298.14062 63.265625 298.14062 62.734375Q298.14062 62.21875 298.32812 61.84375Q298.53125 61.453125 298.90625 61.1875Q299.28125 60.921875 299.8125 60.796875Q300.34375 60.65625 301.0 60.65625L302.25 60.65625ZM307.85938 63.71875Q308.25 63.71875 308.57812 63.5625Q308.90625 63.40625 309.10938 63.140625Q309.32812 62.859375 309.35938 62.5L310.39062 62.5Q310.35938 63.0625 310.0 63.546875Q309.65625 64.03125 309.09375 64.328125Q308.53125 64.625 307.85938 64.625Q307.15625 64.625 306.625 64.375Q306.09375 64.109375 305.73438 63.671875Q305.39062 63.234375 305.21875 62.671875Q305.04688 62.09375 305.04688 61.453125L305.04688 61.203125Q305.04688 60.5625 305.21875 60.0Q305.39062 59.421875 305.73438 58.984375Q306.09375 58.546875 306.625 58.296875Q307.15625 58.046875 307.85938 58.046875Q308.60938 58.046875 309.15625 58.34375Q309.71875 58.640625 310.03125 59.171875Q310.35938 59.6875 310.39062 60.34375L309.35938 60.34375Q309.32812 59.953125 309.14062 59.640625Q308.95312 59.3125 308.625 59.125Q308.29688 58.9375 307.85938 58.9375Q307.35938 58.9375 307.01562 59.140625Q306.6875 59.328125 306.48438 59.65625Q306.29688 59.984375 306.20312 60.390625Q306.125 60.796875 306.125 61.203125L306.125 61.453125Q306.125 61.875 306.20312 62.28125Q306.29688 62.671875 306.48438 63.0Q306.6875 63.328125 307.01562 63.53125Q307.35938 63.71875 307.85938 63.71875ZM313.98438 58.15625L313.98438 58.984375L310.54688 58.984375L310.54688 58.15625L313.98438 58.15625ZM311.71875 56.625L312.79688 56.625L312.79688 62.921875Q312.79688 63.25 312.89062 63.421875Q313.0 63.578125 313.15625 63.640625Q313.3125 63.6875 313.5 63.6875Q313.625 63.6875 313.76562 63.65625Q313.92188 63.625 314.0 63.609375L314.01562 64.5Q313.875 64.546875 313.67188 64.578125Q313.46875 64.625 313.17188 64.625Q312.78125 64.625 312.4375 64.46875Q312.10938 64.296875 311.90625 63.9375Q311.71875 63.5625 311.71875 62.921875L311.71875 56.625ZM316.5 58.15625L316.5 64.5L315.42188 64.5L315.42188 58.15625L316.5 58.15625ZM315.32812 56.484375Q315.32812 56.21875 315.48438 56.03125Q315.65625 55.84375 315.96875 55.84375Q316.28125 55.84375 316.4375 56.03125Q316.60938 56.21875 316.60938 56.484375Q316.60938 56.734375 316.4375 56.921875Q316.28125 57.09375 315.96875 57.09375Q315.65625 57.09375 315.48438 56.921875Q315.32812 56.734375 315.32812 56.484375ZM318.04688 61.40625L318.04688 61.265625Q318.04688 60.578125 318.23438 60.0Q318.4375 59.40625 318.8125 58.96875Q319.1875 58.53125 319.71875 58.296875Q320.25 58.046875 320.92188 58.046875Q321.57812 58.046875 322.10938 58.296875Q322.65625 58.53125 323.03125 58.96875Q323.40625 59.40625 323.60938 60.0Q323.8125 60.578125 323.8125 61.265625L323.8125 61.40625Q323.8125 62.078125 323.60938 62.671875Q323.40625 63.25 323.03125 63.6875Q322.65625 64.125 322.125 64.375Q321.59375 64.625 320.92188 64.625Q320.26562 64.625 319.71875 64.375Q319.1875 64.125 318.8125 63.6875Q318.4375 63.25 318.23438 62.671875Q318.04688 62.078125 318.04688 61.40625ZM319.125 61.265625L319.125 61.40625Q319.125 61.875 319.23438 62.296875Q319.34375 62.71875 319.5625 63.046875Q319.79688 63.359375 320.14062 63.546875Q320.48438 63.71875 320.92188 63.71875Q321.375 63.71875 321.70312 63.546875Q322.04688 63.359375 322.26562 63.046875Q322.5 62.71875 322.60938 62.296875Q322.71875 61.875 322.71875 61.40625L322.71875 61.265625Q322.71875 60.796875 322.60938 60.375Q322.5 59.953125 322.26562 59.640625Q322.04688 59.3125 321.70312 59.125Q321.375 58.9375 320.92188 58.9375Q320.46875 58.9375 320.125 59.125Q319.79688 59.3125 319.5625 59.640625Q319.34375 59.953125 319.23438 60.375Q319.125 60.796875 319.125 61.265625ZM326.40625 59.515625L326.40625 64.5L325.32812 64.5L325.32812 58.15625L326.35938 58.15625L326.40625 59.515625ZM326.15625 61.09375L325.70312 61.078125Q325.70312 60.421875 325.89062 59.875Q326.07812 59.3125 326.42188 58.90625Q326.76562 58.5 327.23438 58.28125Q327.70312 58.046875 328.28125 58.046875Q328.75 58.046875 329.125 58.171875Q329.5 58.296875 329.76562 58.578125Q330.03125 58.84375 330.17188 59.28125Q330.3125 59.71875 330.3125 60.34375L330.3125 64.5L329.21875 64.5L329.21875 60.328125Q329.21875 59.828125 329.07812 59.53125Q328.9375 59.234375 328.65625 59.09375Q328.375 58.953125 327.95312 58.953125Q327.54688 58.953125 327.21875 59.125Q326.89062 59.296875 326.65625 59.59375Q326.42188 59.890625 326.28125 60.28125Q326.15625 60.65625 326.15625 61.09375Z" fill-rule="nonzero"/><path stroke="#cccccc" stroke-width="1.0" stroke-linecap="butt" d="M300.0 204.0L375.0 115.0" fill-rule="nonzero"/><path fill="#000000" d="M368.64062 94.78125L369.76562 94.78125Q369.67188 95.59375 369.29688 96.234375Q368.92188 96.875 368.23438 97.25Q367.5625 97.625 366.53125 97.625Q365.78125 97.625 365.17188 97.34375Q364.5625 97.046875 364.10938 96.53125Q363.67188 96.015625 363.4375 95.296875Q363.20312 94.5625 363.20312 93.65625L363.20312 92.8125Q363.20312 91.921875 363.4375 91.1875Q363.67188 90.453125 364.125 89.9375Q364.57812 89.40625 365.20312 89.125Q365.84375 88.84375 366.625 88.84375Q367.59375 88.84375 368.26562 89.21875Q368.9375 89.578125 369.29688 90.21875Q369.67188 90.859375 369.76562 91.703125L368.64062 91.703125Q368.5625 91.109375 368.32812 90.6875Q368.10938 90.25 367.70312 90.015625Q367.29688 89.78125 366.625 89.78125Q366.0625 89.78125 365.625 90.0Q365.20312 90.203125 364.90625 90.609375Q364.625 91.0 364.46875 91.5625Q364.32812 92.125 364.32812 92.796875L364.32812 93.65625Q364.32812 94.28125 364.45312 94.84375Q364.59375 95.390625 364.85938 95.8125Q365.125 96.21875 365.54688 96.46875Q365.96875 96.703125 366.53125 96.703125Q367.25 96.703125 367.67188 96.46875Q368.10938 96.234375 368.32812 95.8125Q368.54688 95.390625 368.64062 94.78125ZM371.04688 94.40625L371.04688 94.265625Q371.04688 93.578125 371.23438 93.0Q371.4375 92.40625 371.8125 91.96875Q372.1875 91.53125 372.71875 91.296875Q373.25 91.046875 373.92188 91.046875Q374.57812 91.046875 375.10938 91.296875Q375.65625 91.53125 376.03125 91.96875Q376.40625 92.40625 376.60938 93.0Q376.8125 93.578125 376.8125 94.265625L376.8125 94.40625Q376.8125 95.078125 376.60938 95.671875Q376.40625 96.25 376.03125 96.6875Q375.65625 97.125 375.125 97.375Q374.59375 97.625 373.92188 97.625Q373.26562 97.625 372.71875 97.375Q372.1875 97.125 371.8125 96.6875Q371.4375 96.25 371.23438 95.671875Q371.04688 95.078125 371.04688 94.40625ZM372.125 94.265625L372.125 94.40625Q372.125 94.875 372.23438 95.296875Q372.34375 95.71875 372.5625 96.046875Q372.79688 96.359375 373.14062 96.546875Q373.48438 96.71875 373.92188 96.71875Q374.375 96.71875 374.70312 96.546875Q375.04688 96.359375 375.26562 96.046875Q375.5 95.71875 375.60938 95.296875Q375.71875 94.875 375.71875 94.40625L375.71875 94.265625Q375.71875 93.796875 375.60938 93.375Q375.5 92.953125 375.26562 92.640625Q375.04688 92.3125 374.70312 92.125Q374.375 91.9375 373.92188 91.9375Q373.46875 91.9375 373.125 92.125Q372.79688 92.3125 372.5625 92.640625Q372.34375 92.953125 372.23438 93.375Q372.125 93.796875 372.125 94.265625ZM379.40625 92.421875L379.40625 97.5L378.3125 97.5L378.3125 91.15625L379.34375 91.15625L379.40625 92.421875ZM379.1875 94.09375L378.67188 94.078125Q378.6875 93.421875 378.84375 92.875Q379.01562 92.3125 379.32812 91.90625Q379.65625 91.5 380.14062 91.28125Q380.625 91.046875 381.25 91.046875Q381.70312 91.046875 382.07812 91.171875Q382.45312 91.296875 382.71875 91.5625Q383.0 91.828125 383.14062 92.25Q383.29688 92.671875 383.29688 93.28125L383.29688 97.5L382.21875 97.5L382.21875 93.328125Q382.21875 92.828125 382.04688 92.53125Q381.89062 92.234375 381.57812 92.09375Q381.28125 91.953125 380.85938 91.953125Q380.39062 91.953125 380.0625 92.125Q379.73438 92.296875 379.54688 92.59375Q379.35938 92.890625 379.26562 93.28125Q379.1875 93.65625 379.1875 94.09375ZM383.29688 93.484375L382.5625 93.71875Q382.5625 93.1875 382.73438 92.71875Q382.90625 92.234375 383.21875 91.859375Q383.54688 91.484375 384.01562 91.265625Q384.48438 91.046875 385.07812 91.046875Q385.59375 91.046875 385.98438 91.1875Q386.39062 91.3125 386.65625 91.59375Q386.92188 91.875 387.0625 92.3125Q387.20312 92.734375 387.20312 93.328125L387.20312 97.5L386.125 97.5L386.125 93.328125Q386.125 92.78125 385.95312 92.5Q385.78125 92.203125 385.48438 92.078125Q385.1875 91.953125 384.76562 91.953125Q384.40625 91.953125 384.125 92.078125Q383.85938 92.203125 383.67188 92.421875Q383.48438 92.625 383.39062 92.90625Q383.29688 93.1875 383.29688 93.484375ZM390.40625 92.375L390.40625 99.9375L389.32812 99.9375L389.32812 91.15625L390.3125 91.15625L390.40625 92.375ZM394.6875 94.28125L394.6875 94.40625Q394.6875 95.09375 394.51562 95.6875Q394.35938 96.265625 394.04688 96.703125Q393.73438 97.140625 393.26562 97.390625Q392.8125 97.625 392.21875 97.625Q391.625 97.625 391.15625 97.421875Q390.6875 97.21875 390.35938 96.84375Q390.04688 96.453125 389.85938 95.921875Q389.67188 95.390625 389.59375 94.71875L389.59375 94.0625Q389.67188 93.359375 389.85938 92.8125Q390.04688 92.25 390.35938 91.859375Q390.6875 91.453125 391.14062 91.25Q391.60938 91.046875 392.20312 91.046875Q392.79688 91.046875 393.26562 91.28125Q393.73438 91.5 394.04688 91.9375Q394.35938 92.359375 394.51562 92.953125Q394.6875 93.546875 394.6875 94.28125ZM393.59375 94.40625L393.59375 94.28125Q393.59375 93.796875 393.48438 93.390625Q393.39062 92.96875 393.1875 92.65625Q392.98438 92.328125 392.65625 92.140625Q392.32812 91.953125 391.89062 91.953125Q391.48438 91.953125 391.17188 92.09375Q390.875 92.234375 390.65625 92.484375Q390.45312 92.71875 390.3125 93.015625Q390.1875 93.3125 390.125 93.640625L390.125 95.15625Q390.23438 95.5625 390.4375 95.921875Q390.65625 96.28125 391.0 96.5Q391.35938 96.71875 391.90625 96.71875Q392.34375 96.71875 392.65625 96.546875Q392.98438 96.359375 393.1875 96.046875Q393.39062 95.71875 393.48438 95.296875Q393.59375 94.875 393.59375 94.40625ZM397.5 88.5L397.5 97.5L396.42188 97.5L396.42188 88.5L397.5 88.5ZM401.95312 97.625Q401.29688 97.625 400.75 97.40625Q400.21875 97.171875 399.82812 96.765625Q399.45312 96.34375 399.25 95.78125Q399.04688 95.21875 399.04688 94.546875L399.04688 94.3125Q399.04688 93.53125 399.26562 92.921875Q399.5 92.3125 399.89062 91.890625Q400.28125 91.46875 400.78125 91.265625Q401.28125 91.046875 401.8125 91.046875Q402.5 91.046875 402.98438 91.28125Q403.48438 91.515625 403.79688 91.9375Q404.125 92.34375 404.26562 92.921875Q404.42188 93.484375 404.42188 94.140625L404.42188 94.640625L399.6875 94.640625L399.6875 93.75L403.34375 93.75L403.34375 93.671875Q403.3125 93.25 403.15625 92.859375Q403.01562 92.453125 402.6875 92.203125Q402.375 91.9375 401.8125 91.9375Q401.45312 91.9375 401.14062 92.09375Q400.82812 92.25 400.59375 92.5625Q400.375 92.859375 400.25 93.296875Q400.14062 93.734375 400.14062 94.3125L400.14062 94.546875Q400.14062 95.0 400.26562 95.40625Q400.39062 95.796875 400.625 96.09375Q400.875 96.390625 401.21875 96.5625Q401.57812 96.734375 402.01562 96.734375Q402.59375 96.734375 402.98438 96.5Q403.39062 96.265625 403.6875 95.875L404.34375 96.390625Q404.14062 96.703125 403.8125 96.984375Q403.5 97.265625 403.03125 97.453125Q402.57812 97.625 401.95312 97.625ZM406.0625 91.15625L407.45312 93.46875L408.85938 91.15625L410.125 91.15625L408.04688 94.28125L410.1875 97.5L408.9375 97.5L407.46875 95.125L406.0 97.5L404.75 97.5L406.875 94.28125L404.8125 91.15625L406.0625 91.15625ZM412.5 91.15625L412.5 97.5L411.42188 97.5L411.42188 91.15625L412.5 91.15625ZM411.32812 89.484375Q411.32812 89.21875 411.48438 89.03125Q411.65625 88.84375 411.96875 88.84375Q412.28125 88.84375 412.4375 89.03125Q412.60938 89.21875 412.60938 89.484375Q412.60938 89.734375 412.4375 89.921875Q412.28125 90.09375 411.96875 90.09375Q411.65625 90.09375 411.48438 89.921875Q411.32812 89.734375 411.32812 89.484375ZM416.98438 91.15625L416.98438 91.984375L413.54688 91.984375L413.54688 91.15625L416.98438 91.15625ZM414.71875 89.625L415.79688 89.625L415.79688 95.921875Q415.79688 96.25 415.89062 96.421875Q416.0 96.578125 416.15625 96.640625Q416.3125 96.6875 416.5 96.6875Q416.625 96.6875 416.76562 96.65625Q416.92188 96.625 417.0 96.609375L417.01562 97.5Q416.875 97.546875 416.67188 97.578125Q416.46875 97.625 416.17188 97.625Q415.78125 97.625 415.4375 97.46875Q415.10938 97.296875 414.90625 96.9375Q414.71875 96.5625 414.71875 95.921875L414.71875 89.625ZM420.10938 96.84375L421.875 91.15625L423.03125 91.15625L420.48438 98.484375Q420.40625 98.71875 420.25 98.984375Q420.10938 99.265625 419.89062 99.5Q419.67188 99.75 419.35938 99.90625Q419.04688 100.0625 418.60938 100.0625Q418.48438 100.0625 418.28125 100.015625Q418.07812 99.984375 418.0 99.96875L418.0 99.09375Q418.04688 99.09375 418.14062 99.09375Q418.25 99.109375 418.28125 99.109375Q418.65625 99.109375 418.90625 99.015625Q419.17188 98.921875 419.34375 98.6875Q419.53125 98.46875 419.65625 98.078125L420.10938 96.84375ZM418.8125 91.15625L420.45312 96.078125L420.73438 97.21875L419.96875 97.625L417.625 91.15625L418.8125 91.15625Z" fill-rule="nonzero"/><path stroke="#cccccc" stroke-width="1.0" stroke-linecap="butt" d="M300.0 204.0L415.0 184.0" fill-rule="nonzero"/><path fill="#000000" d="M416.125 174.96875L416.125 183.5L414.98438 183.5L414.98438 174.96875L416.125 174.96875ZM419.70312 178.8125L419.70312 179.73438L415.875 179.73438L415.875 178.8125L419.70312 178.8125ZM420.28125 174.96875L420.28125 175.89062L415.875 175.89062L415.875 174.96875L420.28125 174.96875ZM422.90625 178.15625L422.90625 183.5L421.82812 183.5L421.82812 177.15625L422.875 177.15625L422.90625 178.15625ZM424.89062 177.125L424.89062 178.125Q424.75 178.10938 424.625 178.09375Q424.51562 178.07812 424.35938 178.07812Q423.98438 178.07812 423.6875 178.20312Q423.40625 178.3125 423.20312 178.53125Q423.01562 178.73438 422.89062 179.03125Q422.78125 179.32812 422.75 179.67188L422.4375 179.84375Q422.4375 179.26562 422.54688 178.76562Q422.67188 178.26562 422.90625 177.875Q423.15625 177.48438 423.51562 177.26562Q423.89062 177.04688 424.40625 177.04688Q424.53125 177.04688 424.67188 177.07812Q424.82812 177.09375 424.89062 177.125ZM428.45312 183.625Q427.79688 183.625 427.25 183.40625Q426.71875 183.17188 426.32812 182.76562Q425.95312 182.34375 425.75 181.78125Q425.54688 181.21875 425.54688 180.54688L425.54688 180.3125Q425.54688 179.53125 425.76562 178.92188Q426.0 178.3125 426.39062 177.89062Q426.78125 177.46875 427.28125 177.26562Q427.78125 177.04688 428.3125 177.04688Q429.0 177.04688 429.48438 177.28125Q429.98438 177.51562 430.29688 177.9375Q430.625 178.34375 430.76562 178.92188Q430.92188 179.48438 430.92188 180.14062L430.92188 180.64062L426.1875 180.64062L426.1875 179.75L429.84375 179.75L429.84375 179.67188Q429.8125 179.25 429.65625 178.85938Q429.51562 178.45312 429.1875 178.20312Q428.875 177.9375 428.3125 177.9375Q427.95312 177.9375 427.64062 178.09375Q427.32812 178.25 427.09375 178.5625Q426.875 178.85938 426.75 179.29688Q426.64062 179.73438 426.64062 180.3125L426.64062 180.54688Q426.64062 181.0 426.76562 181.40625Q426.89062 181.79688 427.125 182.09375Q427.375 182.39062 427.71875 182.5625Q428.07812 182.73438 428.51562 182.73438Q429.09375 182.73438 429.48438 182.5Q429.89062 182.26562 430.1875 181.875L430.84375 182.39062Q430.64062 182.70312 430.3125 182.98438Q430.0 183.26562 429.53125 183.45312Q429.07812 183.625 428.45312 183.625ZM435.8125 185.9375L435.8125 178.375L435.90625 177.15625L436.90625 177.15625L436.90625 185.9375L435.8125 185.9375ZM431.5625 180.40625L431.5625 180.28125Q431.5625 179.54688 431.71875 178.95312Q431.89062 178.35938 432.21875 177.9375Q432.54688 177.5 433.01562 177.28125Q433.48438 177.04688 434.07812 177.04688Q434.6875 177.04688 435.14062 177.25Q435.59375 177.45312 435.90625 177.85938Q436.23438 178.25 436.42188 178.8125Q436.60938 179.35938 436.67188 180.0625L436.67188 180.60938Q436.60938 181.29688 436.42188 181.85938Q436.23438 182.42188 435.90625 182.8125Q435.59375 183.20312 435.125 183.42188Q434.67188 183.625 434.07812 183.625Q433.48438 183.625 433.01562 183.39062Q432.54688 183.14062 432.21875 182.70312Q431.90625 182.26562 431.73438 181.6875Q431.5625 181.09375 431.5625 180.40625ZM432.64062 180.28125L432.64062 180.40625Q432.64062 180.875 432.73438 181.29688Q432.84375 181.71875 433.04688 182.04688Q433.26562 182.35938 433.57812 182.54688Q433.90625 182.71875 434.34375 182.71875Q434.875 182.71875 435.23438 182.48438Q435.59375 182.25 435.8125 181.875Q436.03125 181.48438 436.15625 181.04688L436.15625 179.64062Q436.09375 179.3125 435.95312 179.01562Q435.8125 178.70312 435.59375 178.46875Q435.375 178.21875 435.0625 178.07812Q434.76562 177.9375 434.35938 177.9375Q433.90625 177.9375 433.57812 178.125Q433.26562 178.3125 433.04688 178.64062Q432.84375 178.95312 432.73438 179.375Q432.64062 179.79688 432.64062 180.28125ZM442.70312 182.03125L442.70312 177.15625L443.79688 177.15625L443.79688 183.5L442.76562 183.5L442.70312 182.03125ZM442.90625 180.70312L443.35938 180.6875Q443.35938 181.3125 443.21875 181.85938Q443.09375 182.39062 442.79688 182.78125Q442.51562 183.17188 442.03125 183.40625Q441.5625 183.625 440.89062 183.625Q440.42188 183.625 440.03125 183.48438Q439.65625 183.34375 439.375 183.0625Q439.10938 182.78125 438.95312 182.32812Q438.79688 181.875 438.79688 181.25L438.79688 177.15625L439.89062 177.15625L439.89062 181.26562Q439.89062 181.6875 439.98438 181.96875Q440.07812 182.25 440.25 182.40625Q440.42188 182.5625 440.625 182.64062Q440.82812 182.70312 441.04688 182.70312Q441.75 182.70312 442.14062 182.4375Q442.54688 182.15625 442.71875 181.70312Q442.90625 181.25 442.90625 180.70312ZM448.45312 183.625Q447.79688 183.625 447.25 183.40625Q446.71875 183.17188 446.32812 182.76562Q445.95312 182.34375 445.75 181.78125Q445.54688 181.21875 445.54688 180.54688L445.54688 180.3125Q445.54688 179.53125 445.76562 178.92188Q446.0 178.3125 446.39062 177.89062Q446.78125 177.46875 447.28125 177.26562Q447.78125 177.04688 448.3125 177.04688Q449.0 177.04688 449.48438 177.28125Q449.98438 177.51562 450.29688 177.9375Q450.625 178.34375 450.76562 178.92188Q450.92188 179.48438 450.92188 180.14062L450.92188 180.64062L446.1875 180.64062L446.1875 179.75L449.84375 179.75L449.84375 179.67188Q449.8125 179.25 449.65625 178.85938Q449.51562 178.45312 449.1875 178.20312Q448.875 177.9375 448.3125 177.9375Q447.95312 177.9375 447.64062 178.09375Q447.32812 178.25 447.09375 178.5625Q446.875 178.85938 446.75 179.29688Q446.64062 179.73438 446.64062 180.3125L446.64062 180.54688Q446.64062 181.0 446.76562 181.40625Q446.89062 181.79688 447.125 182.09375Q447.375 182.39062 447.71875 182.5625Q448.07812 182.73438 448.51562 182.73438Q449.09375 182.73438 449.48438 182.5Q449.89062 182.26562 450.1875 181.875L450.84375 182.39062Q450.64062 182.70312 450.3125 182.98438Q450.0 183.26562 449.53125 183.45312Q449.07812 183.625 448.45312 183.625ZM452.90625 178.51562L452.90625 183.5L451.82812 183.5L451.82812 177.15625L452.85938 177.15625L452.90625 178.51562ZM452.65625 180.09375L452.20312 180.07812Q452.20312 179.42188 452.39062 178.875Q452.57812 178.3125 452.92188 177.90625Q453.26562 177.5 453.73438 177.28125Q454.20312 177.04688 454.78125 177.04688Q455.25 177.04688 455.625 177.17188Q456.0 177.29688 456.26562 177.57812Q456.53125 177.84375 456.67188 178.28125Q456.8125 178.71875 456.8125 179.34375L456.8125 183.5L455.71875 183.5L455.71875 179.32812Q455.71875 178.82812 455.57812 178.53125Q455.4375 178.23438 455.15625 178.09375Q454.875 177.95312 454.45312 177.95312Q454.04688 177.95312 453.71875 178.125Q453.39062 178.29688 453.15625 178.59375Q452.92188 178.89062 452.78125 179.28125Q452.65625 179.65625 452.65625 180.09375ZM461.35938 182.71875Q461.75 182.71875 462.07812 182.5625Q462.40625 182.40625 462.60938 182.14062Q462.82812 181.85938 462.85938 181.5L463.89062 181.5Q463.85938 182.0625 463.5 182.54688Q463.15625 183.03125 462.59375 183.32812Q462.03125 183.625 461.35938 183.625Q460.65625 183.625 460.125 183.375Q459.59375 183.10938 459.23438 182.67188Q458.89062 182.23438 458.71875 181.67188Q458.54688 181.09375 458.54688 180.45312L458.54688 180.20312Q458.54688 179.5625 458.71875 179.0Q458.89062 178.42188 459.23438 177.98438Q459.59375 177.54688 460.125 177.29688Q460.65625 177.04688 461.35938 177.04688Q462.10938 177.04688 462.65625 177.34375Q463.21875 177.64062 463.53125 178.17188Q463.85938 178.6875 463.89062 179.34375L462.85938 179.34375Q462.82812 178.95312 462.64062 178.64062Q462.45312 178.3125 462.125 178.125Q461.79688 177.9375 461.35938 177.9375Q460.85938 177.9375 460.51562 178.14062Q460.1875 178.32812 459.98438 178.65625Q459.79688 178.98438 459.70312 179.39062Q459.625 179.79688 459.625 180.20312L459.625 180.45312Q459.625 180.875 459.70312 181.28125Q459.79688 181.67188 459.98438 182.0Q460.1875 182.32812 460.51562 182.53125Q460.85938 182.71875 461.35938 182.71875ZM466.60938 182.84375L468.375 177.15625L469.53125 177.15625L466.98438 184.48438Q466.90625 184.71875 466.75 184.98438Q466.60938 185.26562 466.39062 185.5Q466.17188 185.75 465.85938 185.90625Q465.54688 186.0625 465.10938 186.0625Q464.98438 186.0625 464.78125 186.01562Q464.57812 185.98438 464.5 185.96875L464.5 185.09375Q464.54688 185.09375 464.64062 185.09375Q464.75 185.10938 464.78125 185.10938Q465.15625 185.10938 465.40625 185.01562Q465.67188 184.92188 465.84375 184.6875Q466.03125 184.46875 466.15625 184.07812L466.60938 182.84375ZM465.3125 177.15625L466.95312 182.07812L467.23438 183.21875L466.46875 183.625L464.125 177.15625L465.3125 177.15625Z" fill-rule="nonzero"/><path stroke="#cccccc" stroke-width="1.0" stroke-linecap="butt" d="M300.0 204.0L401.0 262.0" fill-rule="nonzero"/><path fill="#000000" d="M413.29688 280.5L411.51562 280.5L411.53125 279.57812L413.29688 279.57812Q414.21875 279.57812 414.82812 279.20312Q415.4375 278.8125 415.73438 278.125Q416.04688 277.42188 416.04688 276.48438L416.04688 275.96875Q416.04688 275.23438 415.875 274.67188Q415.70312 274.09375 415.35938 273.70312Q415.01562 273.29688 414.51562 273.09375Q414.03125 272.89062 413.40625 272.89062L411.48438 272.89062L411.48438 271.96875L413.40625 271.96875Q414.25 271.96875 414.9375 272.25Q415.625 272.53125 416.125 273.0625Q416.625 273.57812 416.89062 274.32812Q417.17188 275.0625 417.17188 275.98438L417.17188 276.48438Q417.17188 277.42188 416.89062 278.17188Q416.625 278.90625 416.10938 279.42188Q415.60938 279.9375 414.89062 280.21875Q414.1875 280.5 413.29688 280.5ZM412.125 271.96875L412.125 280.5L410.98438 280.5L410.98438 271.96875L412.125 271.96875ZM421.45312 280.625Q420.79688 280.625 420.25 280.40625Q419.71875 280.17188 419.32812 279.76562Q418.95312 279.34375 418.75 278.78125Q418.54688 278.21875 418.54688 277.54688L418.54688 277.3125Q418.54688 276.53125 418.76562 275.92188Q419.0 275.3125 419.39062 274.89062Q419.78125 274.46875 420.28125 274.26562Q420.78125 274.04688 421.3125 274.04688Q422.0 274.04688 422.48438 274.28125Q422.98438 274.51562 423.29688 274.9375Q423.625 275.34375 423.76562 275.92188Q423.92188 276.48438 423.92188 277.14062L423.92188 277.64062L419.1875 277.64062L419.1875 276.75L422.84375 276.75L422.84375 276.67188Q422.8125 276.25 422.65625 275.85938Q422.51562 275.45312 422.1875 275.20312Q421.875 274.9375 421.3125 274.9375Q420.95312 274.9375 420.64062 275.09375Q420.32812 275.25 420.09375 275.5625Q419.875 275.85938 419.75 276.29688Q419.64062 276.73438 419.64062 277.3125L419.64062 277.54688Q419.64062 278.0 419.76562 278.40625Q419.89062 278.79688 420.125 279.09375Q420.375 279.39062 420.71875 279.5625Q421.07812 279.73438 421.51562 279.73438Q422.09375 279.73438 422.48438 279.5Q422.89062 279.26562 423.1875 278.875L423.84375 279.39062Q423.64062 279.70312 423.3125 279.98438Q423.0 280.26562 422.53125 280.45312Q422.07812 280.625 421.45312 280.625ZM426.0 271.5L426.0 280.5L424.92188 280.5L424.92188 271.5L426.0 271.5ZM431.5625 279.42188L431.5625 276.15625Q431.5625 275.78125 431.40625 275.5Q431.26562 275.21875 430.96875 275.07812Q430.67188 274.92188 430.23438 274.92188Q429.8125 274.92188 429.5 275.0625Q429.20312 275.20312 429.03125 275.4375Q428.85938 275.65625 428.85938 275.92188L427.78125 275.92188Q427.78125 275.57812 427.95312 275.25Q428.125 274.90625 428.45312 274.64062Q428.78125 274.35938 429.25 274.20312Q429.71875 274.04688 430.29688 274.04688Q430.98438 274.04688 431.51562 274.28125Q432.04688 274.51562 432.34375 274.98438Q432.65625 275.45312 432.65625 276.15625L432.65625 279.10938Q432.65625 279.4375 432.70312 279.79688Q432.76562 280.14062 432.875 280.40625L432.875 280.5L431.73438 280.5Q431.65625 280.3125 431.60938 280.0Q431.5625 279.6875 431.5625 279.42188ZM431.75 276.65625L431.76562 277.42188L430.67188 277.42188Q430.20312 277.42188 429.84375 277.5Q429.48438 277.5625 429.23438 277.71875Q428.98438 277.85938 428.85938 278.07812Q428.73438 278.29688 428.73438 278.59375Q428.73438 278.89062 428.85938 279.14062Q429.0 279.375 429.26562 279.53125Q429.54688 279.67188 429.9375 279.67188Q430.4375 279.67188 430.8125 279.46875Q431.20312 279.25 431.42188 278.95312Q431.65625 278.64062 431.67188 278.34375L432.14062 278.875Q432.09375 279.10938 431.90625 279.42188Q431.73438 279.71875 431.42188 280.0Q431.125 280.26562 430.70312 280.45312Q430.29688 280.625 429.78125 280.625Q429.14062 280.625 428.65625 280.375Q428.17188 280.10938 427.90625 279.6875Q427.64062 279.26562 427.64062 278.73438Q427.64062 278.21875 427.82812 277.84375Q428.03125 277.45312 428.40625 277.1875Q428.78125 276.92188 429.3125 276.79688Q429.84375 276.65625 430.5 276.65625L431.75 276.65625ZM436.60938 279.84375L438.375 274.15625L439.53125 274.15625L436.98438 281.48438Q436.90625 281.71875 436.75 281.98438Q436.60938 282.26562 436.39062 282.5Q436.17188 282.75 435.85938 282.90625Q435.54688 283.0625 435.10938 283.0625Q434.98438 283.0625 434.78125 283.01562Q434.57812 282.98438 434.5 282.96875L434.5 282.09375Q434.54688 282.09375 434.64062 282.09375Q434.75 282.10938 434.78125 282.10938Q435.15625 282.10938 435.40625 282.01562Q435.67188 281.92188 435.84375 281.6875Q436.03125 281.46875 436.15625 281.07812L436.60938 279.84375ZM435.3125 274.15625L436.95312 279.07812L437.23438 280.21875L436.46875 280.625L434.125 274.15625L435.3125 274.15625Z" fill-rule="nonzero"/><path stroke="#cccccc" stroke-width="1.0" stroke-linecap="butt" d="M300.0 204.0L340.0 314.0" fill-rule="nonzero"/><path fill="#000000" d="M331.67188 343.57812L331.67188 344.5L327.40625 344.5L327.40625 343.57812L331.67188 343.57812ZM327.625 335.96875L327.625 344.5L326.48438 344.5L326.48438 335.96875L327.625 335.96875ZM332.04688 341.40625L332.04688 341.26562Q332.04688 340.57812 332.23438 340.0Q332.4375 339.40625 332.8125 338.96875Q333.1875 338.53125 333.71875 338.29688Q334.25 338.04688 334.92188 338.04688Q335.57812 338.04688 336.10938 338.29688Q336.65625 338.53125 337.03125 338.96875Q337.40625 339.40625 337.60938 340.0Q337.8125 340.57812 337.8125 341.26562L337.8125 341.40625Q337.8125 342.07812 337.60938 342.67188Q337.40625 343.25 337.03125 343.6875Q336.65625 344.125 336.125 344.375Q335.59375 344.625 334.92188 344.625Q334.26562 344.625 333.71875 344.375Q333.1875 344.125 332.8125 343.6875Q332.4375 343.25 332.23438 342.67188Q332.04688 342.07812 332.04688 341.40625ZM333.125 341.26562L333.125 341.40625Q333.125 341.875 333.23438 342.29688Q333.34375 342.71875 333.5625 343.04688Q333.79688 343.35938 334.14062 343.54688Q334.48438 343.71875 334.92188 343.71875Q335.375 343.71875 335.70312 343.54688Q336.04688 343.35938 336.26562 343.04688Q336.5 342.71875 336.60938 342.29688Q336.71875 341.875 336.71875 341.40625L336.71875 341.26562Q336.71875 340.79688 336.60938 340.375Q336.5 339.95312 336.26562 339.64062Q336.04688 339.3125 335.70312 339.125Q335.375 338.9375 334.92188 338.9375Q334.46875 338.9375 334.125 339.125Q333.79688 339.3125 333.5625 339.64062Q333.34375 339.95312 333.23438 340.375Q333.125 340.79688 333.125 341.26562ZM341.85938 343.71875Q342.25 343.71875 342.57812 343.5625Q342.90625 343.40625 343.10938 343.14062Q343.32812 342.85938 343.35938 342.5L344.39062 342.5Q344.35938 343.0625 344.0 343.54688Q343.65625 344.03125 343.09375 344.32812Q342.53125 344.625 341.85938 344.625Q341.15625 344.625 340.625 344.375Q340.09375 344.10938 339.73438 343.67188Q339.39062 343.23438 339.21875 342.67188Q339.04688 342.09375 339.04688 341.45312L339.04688 341.20312Q339.04688 340.5625 339.21875 340.0Q339.39062 339.42188 339.73438 338.98438Q340.09375 338.54688 340.625 338.29688Q341.15625 338.04688 341.85938 338.04688Q342.60938 338.04688 343.15625 338.34375Q343.71875 338.64062 344.03125 339.17188Q344.35938 339.6875 344.39062 340.34375L343.35938 340.34375Q343.32812 339.95312 343.14062 339.64062Q342.95312 339.3125 342.625 339.125Q342.29688 338.9375 341.85938 338.9375Q341.35938 338.9375 341.01562 339.14062Q340.6875 339.32812 340.48438 339.65625Q340.29688 339.98438 340.20312 340.39062Q340.125 340.79688 340.125 341.20312L340.125 341.45312Q340.125 341.875 340.20312 342.28125Q340.29688 342.67188 340.48438 343.0Q340.6875 343.32812 341.01562 343.53125Q341.35938 343.71875 341.85938 343.71875ZM349.0625 343.42188L349.0625 340.15625Q349.0625 339.78125 348.90625 339.5Q348.76562 339.21875 348.46875 339.07812Q348.17188 338.92188 347.73438 338.92188Q347.3125 338.92188 347.0 339.0625Q346.70312 339.20312 346.53125 339.4375Q346.35938 339.65625 346.35938 339.92188L345.28125 339.92188Q345.28125 339.57812 345.45312 339.25Q345.625 338.90625 345.95312 338.64062Q346.28125 338.35938 346.75 338.20312Q347.21875 338.04688 347.79688 338.04688Q348.48438 338.04688 349.01562 338.28125Q349.54688 338.51562 349.84375 338.98438Q350.15625 339.45312 350.15625 340.15625L350.15625 343.10938Q350.15625 343.4375 350.20312 343.79688Q350.26562 344.14062 350.375 344.40625L350.375 344.5L349.23438 344.5Q349.15625 344.3125 349.10938 344.0Q349.0625 343.6875 349.0625 343.42188ZM349.25 340.65625L349.26562 341.42188L348.17188 341.42188Q347.70312 341.42188 347.34375 341.5Q346.98438 341.5625 346.73438 341.71875Q346.48438 341.85938 346.35938 342.07812Q346.23438 342.29688 346.23438 342.59375Q346.23438 342.89062 346.35938 343.14062Q346.5 343.375 346.76562 343.53125Q347.04688 343.67188 347.4375 343.67188Q347.9375 343.67188 348.3125 343.46875Q348.70312 343.25 348.92188 342.95312Q349.15625 342.64062 349.17188 342.34375L349.64062 342.875Q349.59375 343.10938 349.40625 343.42188Q349.23438 343.71875 348.92188 344.0Q348.625 344.26562 348.20312 344.45312Q347.79688 344.625 347.28125 344.625Q346.64062 344.625 346.15625 344.375Q345.67188 344.10938 345.40625 343.6875Q345.14062 343.26562 345.14062 342.73438Q345.14062 342.21875 345.32812 341.84375Q345.53125 341.45312 345.90625 341.1875Q346.28125 340.92188 346.8125 340.79688Q347.34375 340.65625 348.0 340.65625L349.25 340.65625ZM354.98438 338.15625L354.98438 338.98438L351.54688 338.98438L351.54688 338.15625L354.98438 338.15625ZM352.71875 336.625L353.79688 336.625L353.79688 342.92188Q353.79688 343.25 353.89062 343.42188Q354.0 343.57812 354.15625 343.64062Q354.3125 343.6875 354.5 343.6875Q354.625 343.6875 354.76562 343.65625Q354.92188 343.625 355.0 343.60938L355.01562 344.5Q354.875 344.54688 354.67188 344.57812Q354.46875 344.625 354.17188 344.625Q353.78125 344.625 353.4375 344.46875Q353.10938 344.29688 352.90625 343.9375Q352.71875 343.5625 352.71875 342.92188L352.71875 336.625ZM357.5 338.15625L357.5 344.5L356.42188 344.5L356.42188 338.15625L357.5 338.15625ZM356.32812 336.48438Q356.32812 336.21875 356.48438 336.03125Q356.65625 335.84375 356.96875 335.84375Q357.28125 335.84375 357.4375 336.03125Q357.60938 336.21875 357.60938 336.48438Q357.60938 336.73438 357.4375 336.92188Q357.28125 337.09375 356.96875 337.09375Q356.65625 337.09375 356.48438 336.92188Q356.32812 336.73438 356.32812 336.48438ZM359.04688 341.40625L359.04688 341.26562Q359.04688 340.57812 359.23438 340.0Q359.4375 339.40625 359.8125 338.96875Q360.1875 338.53125 360.71875 338.29688Q361.25 338.04688 361.92188 338.04688Q362.57812 338.04688 363.10938 338.29688Q363.65625 338.53125 364.03125 338.96875Q364.40625 339.40625 364.60938 340.0Q364.8125 340.57812 364.8125 341.26562L364.8125 341.40625Q364.8125 342.07812 364.60938 342.67188Q364.40625 343.25 364.03125 343.6875Q363.65625 344.125 363.125 344.375Q362.59375 344.625 361.92188 344.625Q361.26562 344.625 360.71875 344.375Q360.1875 344.125 359.8125 343.6875Q359.4375 343.25 359.23438 342.67188Q359.04688 342.07812 359.04688 341.40625ZM360.125 341.26562L360.125 341.40625Q360.125 341.875 360.23438 342.29688Q360.34375 342.71875 360.5625 343.04688Q360.79688 343.35938 361.14062 343.54688Q361.48438 343.71875 361.92188 343.71875Q362.375 343.71875 362.70312 343.54688Q363.04688 343.35938 363.26562 343.04688Q363.5 342.71875 363.60938 342.29688Q363.71875 341.875 363.71875 341.40625L363.71875 341.26562Q363.71875 340.79688 363.60938 340.375Q363.5 339.95312 363.26562 339.64062Q363.04688 339.3125 362.70312 339.125Q362.375 338.9375 361.92188 338.9375Q361.46875 338.9375 361.125 339.125Q360.79688 339.3125 360.5625 339.64062Q360.34375 339.95312 360.23438 340.375Q360.125 340.79688 360.125 341.26562ZM367.40625 339.51562L367.40625 344.5L366.32812 344.5L366.32812 338.15625L367.35938 338.15625L367.40625 339.51562ZM367.15625 341.09375L366.70312 341.07812Q366.70312 340.42188 366.89062 339.875Q367.07812 339.3125 367.42188 338.90625Q367.76562 338.5 368.23438 338.28125Q368.70312 338.04688 369.28125 338.04688Q369.75 338.04688 370.125 338.17188Q370.5 338.29688 370.76562 338.57812Q371.03125 338.84375 371.17188 339.28125Q371.3125 339.71875 371.3125 340.34375L371.3125 344.5L370.21875 344.5L370.21875 340.32812Q370.21875 339.82812 370.07812 339.53125Q369.9375 339.23438 369.65625 339.09375Q369.375 338.95312 368.95312 338.95312Q368.54688 338.95312 368.21875 339.125Q367.89062 339.29688 367.65625 339.59375Q367.42188 339.89062 367.28125 340.28125Q367.15625 340.65625 367.15625 341.09375Z" fill-rule="nonzero"/><path stroke="#cccccc" stroke-width="1.0" stroke-linecap="butt" d="M300.0 204.0L260.0 314.0" fill-rule="nonzero"/><path fill="#000000" d="M227.40625 343.57812L227.40625 344.5L222.89062 344.5L222.89062 343.57812L227.40625 343.57812ZM223.125 335.96875L223.125 344.5L221.98438 344.5L221.98438 335.96875L223.125 335.96875ZM226.8125 339.64062L226.8125 340.5625L222.89062 340.5625L222.89062 339.64062L226.8125 339.64062ZM227.35938 335.96875L227.35938 336.89062L222.89062 336.89062L222.89062 335.96875L227.35938 335.96875ZM229.5625 338.15625L230.95312 340.46875L232.35938 338.15625L233.625 338.15625L231.54688 341.28125L233.6875 344.5L232.4375 344.5L230.96875 342.125L229.5 344.5L228.25 344.5L230.375 341.28125L228.3125 338.15625L229.5625 338.15625ZM237.48438 338.15625L237.48438 338.98438L234.04688 338.98438L234.04688 338.15625L237.48438 338.15625ZM235.21875 336.625L236.29688 336.625L236.29688 342.92188Q236.29688 343.25 236.39062 343.42188Q236.5 343.57812 236.65625 343.64062Q236.8125 343.6875 237.0 343.6875Q237.125 343.6875 237.26562 343.65625Q237.42188 343.625 237.5 343.60938L237.51562 344.5Q237.375 344.54688 237.17188 344.57812Q236.96875 344.625 236.67188 344.625Q236.28125 344.625 235.9375 344.46875Q235.60938 344.29688 235.40625 343.9375Q235.21875 343.5625 235.21875 342.92188L235.21875 336.625ZM239.90625 339.15625L239.90625 344.5L238.82812 344.5L238.82812 338.15625L239.875 338.15625L239.90625 339.15625ZM241.89062 338.125L241.89062 339.125Q241.75 339.10938 241.625 339.09375Q241.51562 339.07812 241.35938 339.07812Q240.98438 339.07812 240.6875 339.20312Q240.40625 339.3125 240.20312 339.53125Q240.01562 339.73438 239.89062 340.03125Q239.78125 340.32812 239.75 340.67188L239.4375 340.84375Q239.4375 340.26562 239.54688 339.76562Q239.67188 339.26562 239.90625 338.875Q240.15625 338.48438 240.51562 338.26562Q240.89062 338.04688 241.40625 338.04688Q241.53125 338.04688 241.67188 338.07812Q241.82812 338.09375 241.89062 338.125ZM246.5625 343.42188L246.5625 340.15625Q246.5625 339.78125 246.40625 339.5Q246.26562 339.21875 245.96875 339.07812Q245.67188 338.92188 245.23438 338.92188Q244.8125 338.92188 244.5 339.0625Q244.20312 339.20312 244.03125 339.4375Q243.85938 339.65625 243.85938 339.92188L242.78125 339.92188Q242.78125 339.57812 242.95312 339.25Q243.125 338.90625 243.45312 338.64062Q243.78125 338.35938 244.25 338.20312Q244.71875 338.04688 245.29688 338.04688Q245.98438 338.04688 246.51562 338.28125Q247.04688 338.51562 247.34375 338.98438Q247.65625 339.45312 247.65625 340.15625L247.65625 343.10938Q247.65625 343.4375 247.70312 343.79688Q247.76562 344.14062 247.875 344.40625L247.875 344.5L246.73438 344.5Q246.65625 344.3125 246.60938 344.0Q246.5625 343.6875 246.5625 343.42188ZM246.75 340.65625L246.76562 341.42188L245.67188 341.42188Q245.20312 341.42188 244.84375 341.5Q244.48438 341.5625 244.23438 341.71875Q243.98438 341.85938 243.85938 342.07812Q243.73438 342.29688 243.73438 342.59375Q243.73438 342.89062 243.85938 343.14062Q244.0 343.375 244.26562 343.53125Q244.54688 343.67188 244.9375 343.67188Q245.4375 343.67188 245.8125 343.46875Q246.20312 343.25 246.42188 342.95312Q246.65625 342.64062 246.67188 342.34375L247.14062 342.875Q247.09375 343.10938 246.90625 343.42188Q246.73438 343.71875 246.42188 344.0Q246.125 344.26562 245.70312 344.45312Q245.29688 344.625 244.78125 344.625Q244.14062 344.625 243.65625 344.375Q243.17188 344.10938 242.90625 343.6875Q242.64062 343.26562 242.64062 342.73438Q242.64062 342.21875 242.82812 341.84375Q243.03125 341.45312 243.40625 341.1875Q243.78125 340.92188 244.3125 340.79688Q244.84375 340.65625 245.5 340.65625L246.75 340.65625ZM254.4375 344.5L253.35938 344.5L253.35938 337.48438Q253.35938 336.8125 253.60938 336.34375Q253.85938 335.85938 254.32812 335.625Q254.79688 335.375 255.4375 335.375Q255.625 335.375 255.8125 335.40625Q256.01562 335.42188 256.1875 335.46875L256.125 336.35938Q256.01562 336.32812 255.85938 336.3125Q255.70312 336.29688 255.54688 336.29688Q255.20312 336.29688 254.95312 336.4375Q254.70312 336.57812 254.5625 336.84375Q254.4375 337.10938 254.4375 337.48438L254.4375 344.5ZM255.79688 338.15625L255.79688 338.98438L252.35938 338.98438L252.35938 338.15625L255.79688 338.15625ZM258.0 335.5L258.0 344.5L256.92188 344.5L256.92188 335.5L258.0 335.5ZM259.54688 341.40625L259.54688 341.26562Q259.54688 340.57812 259.73438 340.0Q259.9375 339.40625 260.3125 338.96875Q260.6875 338.53125 261.21875 338.29688Q261.75 338.04688 262.42188 338.04688Q263.07812 338.04688 263.60938 338.29688Q264.15625 338.53125 264.53125 338.96875Q264.90625 339.40625 265.10938 340.0Q265.3125 340.57812 265.3125 341.26562L265.3125 341.40625Q265.3125 342.07812 265.10938 342.67188Q264.90625 343.25 264.53125 343.6875Q264.15625 344.125 263.625 344.375Q263.09375 344.625 262.42188 344.625Q261.76562 344.625 261.21875 344.375Q260.6875 344.125 260.3125 343.6875Q259.9375 343.25 259.73438 342.67188Q259.54688 342.07812 259.54688 341.40625ZM260.625 341.26562L260.625 341.40625Q260.625 341.875 260.73438 342.29688Q260.84375 342.71875 261.0625 343.04688Q261.29688 343.35938 261.64062 343.54688Q261.98438 343.71875 262.42188 343.71875Q262.875 343.71875 263.20312 343.54688Q263.54688 343.35938 263.76562 343.04688Q264.0 342.71875 264.10938 342.29688Q264.21875 341.875 264.21875 341.40625L264.21875 341.26562Q264.21875 340.79688 264.10938 340.375Q264.0 339.95312 263.76562 339.64062Q263.54688 339.3125 263.20312 339.125Q262.875 338.9375 262.42188 338.9375Q261.96875 338.9375 261.625 339.125Q261.29688 339.3125 261.0625 339.64062Q260.84375 339.95312 260.73438 340.375Q260.625 340.79688 260.625 341.26562ZM268.4375 343.375L270.0625 338.15625L270.78125 338.15625L270.64062 339.20312L268.98438 344.5L268.28125 344.5L268.4375 343.375ZM267.34375 338.15625L268.71875 343.4375L268.82812 344.5L268.09375 344.5L266.25 338.15625L267.34375 338.15625ZM272.32812 343.39062L273.65625 338.15625L274.73438 338.15625L272.89062 344.5L272.17188 344.5L272.32812 343.39062ZM270.9375 338.15625L272.53125 343.28125L272.70312 344.5L272.01562 344.5L270.3125 339.1875L270.17188 338.15625L270.9375 338.15625ZM279.51562 342.8125Q279.51562 342.57812 279.40625 342.375Q279.3125 342.17188 279.0 342.01562Q278.6875 341.84375 278.0625 341.71875Q277.53125 341.60938 277.10938 341.46875Q276.6875 341.3125 276.39062 341.09375Q276.09375 340.875 275.9375 340.57812Q275.78125 340.28125 275.78125 339.89062Q275.78125 339.51562 275.9375 339.1875Q276.10938 338.84375 276.40625 338.59375Q276.71875 338.32812 277.15625 338.1875Q277.59375 338.04688 278.125 338.04688Q278.89062 338.04688 279.42188 338.3125Q279.96875 338.57812 280.25 339.03125Q280.53125 339.48438 280.53125 340.01562L279.45312 340.01562Q279.45312 339.76562 279.29688 339.51562Q279.14062 339.26562 278.84375 339.10938Q278.54688 338.9375 278.125 338.9375Q277.67188 338.9375 277.39062 339.07812Q277.10938 339.20312 276.98438 339.42188Q276.85938 339.625 276.85938 339.85938Q276.85938 340.04688 276.92188 340.1875Q276.98438 340.3125 277.14062 340.4375Q277.29688 340.54688 277.57812 340.65625Q277.875 340.75 278.32812 340.84375Q279.10938 341.01562 279.60938 341.26562Q280.10938 341.51562 280.35938 341.875Q280.60938 342.21875 280.60938 342.73438Q280.60938 343.15625 280.42188 343.5Q280.25 343.84375 279.92188 344.09375Q279.60938 344.34375 279.15625 344.48438Q278.70312 344.625 278.15625 344.625Q277.3125 344.625 276.73438 344.32812Q276.15625 344.01562 275.85938 343.54688Q275.5625 343.0625 275.5625 342.54688L276.64062 342.54688Q276.67188 342.98438 276.90625 343.25Q277.14062 343.51562 277.46875 343.625Q277.8125 343.71875 278.15625 343.71875Q278.59375 343.71875 278.89062 343.60938Q279.20312 343.48438 279.35938 343.28125Q279.51562 343.07812 279.51562 342.8125Z" fill-rule="nonzero"/><path stroke="#cccccc" stroke-width="1.0" stroke-linecap="butt" d="M300.0 204.0L199.0 262.0" fill-rule="nonzero"/><path fill="#000000" d="M148.70312 271.96875L148.70312 280.5L147.57812 280.5L147.57812 271.96875L148.70312 271.96875ZM151.40625 275.51562L151.40625 280.5L150.32812 280.5L150.32812 274.15625L151.35938 274.15625L151.40625 275.51562ZM151.15625 277.09375L150.70312 277.07812Q150.70312 276.42188 150.89062 275.875Q151.07812 275.3125 151.42188 274.90625Q151.76562 274.5 152.23438 274.28125Q152.70312 274.04688 153.28125 274.04688Q153.75 274.04688 154.125 274.17188Q154.5 274.29688 154.76562 274.57812Q155.03125 274.84375 155.17188 275.28125Q155.3125 275.71875 155.3125 276.34375L155.3125 280.5L154.21875 280.5L154.21875 276.32812Q154.21875 275.82812 154.07812 275.53125Q153.9375 275.23438 153.65625 275.09375Q153.375 274.95312 152.95312 274.95312Q152.54688 274.95312 152.21875 275.125Q151.89062 275.29688 151.65625 275.59375Q151.42188 275.89062 151.28125 276.28125Q151.15625 276.65625 151.15625 277.09375ZM159.98438 274.15625L159.98438 274.98438L156.54688 274.98438L156.54688 274.15625L159.98438 274.15625ZM157.71875 272.625L158.79688 272.625L158.79688 278.92188Q158.79688 279.25 158.89062 279.42188Q159.0 279.57812 159.15625 279.64062Q159.3125 279.6875 159.5 279.6875Q159.625 279.6875 159.76562 279.65625Q159.92188 279.625 160.0 279.60938L160.01562 280.5Q159.875 280.54688 159.67188 280.57812Q159.46875 280.625 159.17188 280.625Q158.78125 280.625 158.4375 280.46875Q158.10938 280.29688 157.90625 279.9375Q157.71875 279.5625 157.71875 278.92188L157.71875 272.625ZM162.40625 275.15625L162.40625 280.5L161.32812 280.5L161.32812 274.15625L162.375 274.15625L162.40625 275.15625ZM164.39062 274.125L164.39062 275.125Q164.25 275.10938 164.125 275.09375Q164.01562 275.07812 163.85938 275.07812Q163.48438 275.07812 163.1875 275.20312Q162.90625 275.3125 162.70312 275.53125Q162.51562 275.73438 162.39062 276.03125Q162.28125 276.32812 162.25 276.67188L161.9375 276.84375Q161.9375 276.26562 162.04688 275.76562Q162.17188 275.26562 162.40625 274.875Q162.65625 274.48438 163.01562 274.26562Q163.39062 274.04688 163.90625 274.04688Q164.03125 274.04688 164.17188 274.07812Q164.32812 274.09375 164.39062 274.125ZM169.0625 279.42188L169.0625 276.15625Q169.0625 275.78125 168.90625 275.5Q168.76562 275.21875 168.46875 275.07812Q168.17188 274.92188 167.73438 274.92188Q167.3125 274.92188 167.0 275.0625Q166.70312 275.20312 166.53125 275.4375Q166.35938 275.65625 166.35938 275.92188L165.28125 275.92188Q165.28125 275.57812 165.45312 275.25Q165.625 274.90625 165.95312 274.64062Q166.28125 274.35938 166.75 274.20312Q167.21875 274.04688 167.79688 274.04688Q168.48438 274.04688 169.01562 274.28125Q169.54688 274.51562 169.84375 274.98438Q170.15625 275.45312 170.15625 276.15625L170.15625 279.10938Q170.15625 279.4375 170.20312 279.79688Q170.26562 280.14062 170.375 280.40625L170.375 280.5L169.23438 280.5Q169.15625 280.3125 169.10938 280.0Q169.0625 279.6875 169.0625 279.42188ZM169.25 276.65625L169.26562 277.42188L168.17188 277.42188Q167.70312 277.42188 167.34375 277.5Q166.98438 277.5625 166.73438 277.71875Q166.48438 277.85938 166.35938 278.07812Q166.23438 278.29688 166.23438 278.59375Q166.23438 278.89062 166.35938 279.14062Q166.5 279.375 166.76562 279.53125Q167.04688 279.67188 167.4375 279.67188Q167.9375 279.67188 168.3125 279.46875Q168.70312 279.25 168.92188 278.95312Q169.15625 278.64062 169.17188 278.34375L169.64062 278.875Q169.59375 279.10938 169.40625 279.42188Q169.23438 279.71875 168.92188 280.0Q168.625 280.26562 168.20312 280.45312Q167.79688 280.625 167.28125 280.625Q166.64062 280.625 166.15625 280.375Q165.67188 280.10938 165.40625 279.6875Q165.14062 279.26562 165.14062 278.73438Q165.14062 278.21875 165.32812 277.84375Q165.53125 277.45312 165.90625 277.1875Q166.28125 276.92188 166.8125 276.79688Q167.34375 276.65625 168.0 276.65625L169.25 276.65625ZM176.9375 280.5L175.85938 280.5L175.85938 273.48438Q175.85938 272.8125 176.10938 272.34375Q176.35938 271.85938 176.82812 271.625Q177.29688 271.375 177.9375 271.375Q178.125 271.375 178.3125 271.40625Q178.51562 271.42188 178.6875 271.46875L178.625 272.35938Q178.51562 272.32812 178.35938 272.3125Q178.20312 272.29688 178.04688 272.29688Q177.70312 272.29688 177.45312 272.4375Q177.20312 272.57812 177.0625 272.84375Q176.9375 273.10938 176.9375 273.48438L176.9375 280.5ZM178.29688 274.15625L178.29688 274.98438L174.85938 274.98438L174.85938 274.15625L178.29688 274.15625ZM180.5 271.5L180.5 280.5L179.42188 280.5L179.42188 271.5L180.5 271.5ZM182.04688 277.40625L182.04688 277.26562Q182.04688 276.57812 182.23438 276.0Q182.4375 275.40625 182.8125 274.96875Q183.1875 274.53125 183.71875 274.29688Q184.25 274.04688 184.92188 274.04688Q185.57812 274.04688 186.10938 274.29688Q186.65625 274.53125 187.03125 274.96875Q187.40625 275.40625 187.60938 276.0Q187.8125 276.57812 187.8125 277.26562L187.8125 277.40625Q187.8125 278.07812 187.60938 278.67188Q187.40625 279.25 187.03125 279.6875Q186.65625 280.125 186.125 280.375Q185.59375 280.625 184.92188 280.625Q184.26562 280.625 183.71875 280.375Q183.1875 280.125 182.8125 279.6875Q182.4375 279.25 182.23438 278.67188Q182.04688 278.07812 182.04688 277.40625ZM183.125 277.26562L183.125 277.40625Q183.125 277.875 183.23438 278.29688Q183.34375 278.71875 183.5625 279.04688Q183.79688 279.35938 184.14062 279.54688Q184.48438 279.71875 184.92188 279.71875Q185.375 279.71875 185.70312 279.54688Q186.04688 279.35938 186.26562 279.04688Q186.5 278.71875 186.60938 278.29688Q186.71875 277.875 186.71875 277.40625L186.71875 277.26562Q186.71875 276.79688 186.60938 276.375Q186.5 275.95312 186.26562 275.64062Q186.04688 275.3125 185.70312 275.125Q185.375 274.9375 184.92188 274.9375Q184.46875 274.9375 184.125 275.125Q183.79688 275.3125 183.5625 275.64062Q183.34375 275.95312 183.23438 276.375Q183.125 276.79688 183.125 277.26562ZM190.9375 279.375L192.5625 274.15625L193.28125 274.15625L193.14062 275.20312L191.48438 280.5L190.78125 280.5L190.9375 279.375ZM189.84375 274.15625L191.21875 279.4375L191.32812 280.5L190.59375 280.5L188.75 274.15625L189.84375 274.15625ZM194.82812 279.39062L196.15625 274.15625L197.23438 274.15625L195.39062 280.5L194.67188 280.5L194.82812 279.39062ZM193.4375 274.15625L195.03125 279.28125L195.20312 280.5L194.51562 280.5L192.8125 275.1875L192.67188 274.15625L193.4375 274.15625ZM202.01562 278.8125Q202.01562 278.57812 201.90625 278.375Q201.8125 278.17188 201.5 278.01562Q201.1875 277.84375 200.5625 277.71875Q200.03125 277.60938 199.60938 277.46875Q199.1875 277.3125 198.89062 277.09375Q198.59375 276.875 198.4375 276.57812Q198.28125 276.28125 198.28125 275.89062Q198.28125 275.51562 198.4375 275.1875Q198.60938 274.84375 198.90625 274.59375Q199.21875 274.32812 199.65625 274.1875Q200.09375 274.04688 200.625 274.04688Q201.39062 274.04688 201.92188 274.3125Q202.46875 274.57812 202.75 275.03125Q203.03125 275.48438 203.03125 276.01562L201.95312 276.01562Q201.95312 275.76562 201.79688 275.51562Q201.64062 275.26562 201.34375 275.10938Q201.04688 274.9375 200.625 274.9375Q200.17188 274.9375 199.89062 275.07812Q199.60938 275.20312 199.48438 275.42188Q199.35938 275.625 199.35938 275.85938Q199.35938 276.04688 199.42188 276.1875Q199.48438 276.3125 199.64062 276.4375Q199.79688 276.54688 200.07812 276.65625Q200.375 276.75 200.82812 276.84375Q201.60938 277.01562 202.10938 277.26562Q202.60938 277.51562 202.85938 277.875Q203.10938 278.21875 203.10938 278.73438Q203.10938 279.15625 202.92188 279.5Q202.75 279.84375 202.42188 280.09375Q202.10938 280.34375 201.65625 280.48438Q201.20312 280.625 200.65625 280.625Q199.8125 280.625 199.23438 280.32812Q198.65625 280.01562 198.35938 279.54688Q198.0625 279.0625 198.0625 278.54688L199.14062 278.54688Q199.17188 278.98438 199.40625 279.25Q199.64062 279.51562 199.96875 279.625Q200.3125 279.71875 200.65625 279.71875Q201.09375 279.71875 201.39062 279.60938Q201.70312 279.48438 201.85938 279.28125Q202.01562 279.07812 202.01562 278.8125Z" fill-rule="nonzero"/><path stroke="#cccccc" stroke-width="1.0" stroke-linecap="butt" d="M300.0 204.0L185.0 184.0" fill-rule="nonzero"/><path fill="#000000" d="M142.53125 181.34375Q142.53125 181.04688 142.4375 180.8125Q142.35938 180.57812 142.125 180.39062Q141.90625 180.20312 141.5 180.03125Q141.10938 179.85938 140.51562 179.6875Q139.875 179.5 139.35938 179.28125Q138.85938 179.04688 138.48438 178.75Q138.125 178.4375 137.9375 178.0625Q137.75 177.67188 137.75 177.17188Q137.75 176.67188 137.95312 176.25Q138.15625 175.82812 138.53125 175.51562Q138.92188 175.20312 139.45312 175.03125Q139.98438 174.84375 140.64062 174.84375Q141.60938 174.84375 142.28125 175.21875Q142.95312 175.57812 143.29688 176.17188Q143.65625 176.76562 143.65625 177.42188L142.53125 177.42188Q142.53125 176.95312 142.3125 176.57812Q142.10938 176.20312 141.6875 176.0Q141.28125 175.78125 140.64062 175.78125Q140.04688 175.78125 139.64062 175.96875Q139.25 176.14062 139.0625 176.45312Q138.875 176.76562 138.875 177.15625Q138.875 177.42188 138.98438 177.65625Q139.10938 177.875 139.34375 178.0625Q139.59375 178.25 139.96875 178.40625Q140.34375 178.5625 140.875 178.70312Q141.59375 178.90625 142.125 179.17188Q142.65625 179.42188 143.0 179.73438Q143.34375 180.04688 143.5 180.4375Q143.67188 180.82812 143.67188 181.32812Q143.67188 181.85938 143.45312 182.28125Q143.25 182.70312 142.85938 183.0Q142.46875 183.29688 141.92188 183.46875Q141.375 183.625 140.70312 183.625Q140.10938 183.625 139.53125 183.45312Q138.96875 183.28125 138.5 182.95312Q138.03125 182.625 137.75 182.15625Q137.46875 181.67188 137.46875 181.03125L138.59375 181.03125Q138.59375 181.46875 138.76562 181.78125Q138.9375 182.09375 139.23438 182.29688Q139.53125 182.5 139.90625 182.60938Q140.28125 182.70312 140.70312 182.70312Q141.29688 182.70312 141.70312 182.54688Q142.10938 182.375 142.3125 182.07812Q142.53125 181.76562 142.53125 181.34375ZM145.90625 174.5L145.90625 183.5L144.82812 183.5L144.82812 174.5L145.90625 174.5ZM145.65625 180.09375L145.20312 180.07812Q145.20312 179.42188 145.39062 178.875Q145.57812 178.3125 145.92188 177.90625Q146.26562 177.5 146.73438 177.28125Q147.20312 177.04688 147.78125 177.04688Q148.25 177.04688 148.625 177.17188Q149.0 177.29688 149.26562 177.57812Q149.53125 177.84375 149.67188 178.28125Q149.8125 178.71875 149.8125 179.34375L149.8125 183.5L148.71875 183.5L148.71875 179.32812Q148.71875 178.82812 148.57812 178.53125Q148.4375 178.23438 148.15625 178.09375Q147.875 177.95312 147.45312 177.95312Q147.04688 177.95312 146.71875 178.125Q146.39062 178.29688 146.15625 178.59375Q145.92188 178.89062 145.78125 179.28125Q145.65625 179.65625 145.65625 180.09375ZM155.5625 182.42188L155.5625 179.15625Q155.5625 178.78125 155.40625 178.5Q155.26562 178.21875 154.96875 178.07812Q154.67188 177.92188 154.23438 177.92188Q153.8125 177.92188 153.5 178.0625Q153.20312 178.20312 153.03125 178.4375Q152.85938 178.65625 152.85938 178.92188L151.78125 178.92188Q151.78125 178.57812 151.95312 178.25Q152.125 177.90625 152.45312 177.64062Q152.78125 177.35938 153.25 177.20312Q153.71875 177.04688 154.29688 177.04688Q154.98438 177.04688 155.51562 177.28125Q156.04688 177.51562 156.34375 177.98438Q156.65625 178.45312 156.65625 179.15625L156.65625 182.10938Q156.65625 182.4375 156.70312 182.79688Q156.76562 183.14062 156.875 183.40625L156.875 183.5L155.73438 183.5Q155.65625 183.3125 155.60938 183.0Q155.5625 182.6875 155.5625 182.42188ZM155.75 179.65625L155.76562 180.42188L154.67188 180.42188Q154.20312 180.42188 153.84375 180.5Q153.48438 180.5625 153.23438 180.71875Q152.98438 180.85938 152.85938 181.07812Q152.73438 181.29688 152.73438 181.59375Q152.73438 181.89062 152.85938 182.14062Q153.0 182.375 153.26562 182.53125Q153.54688 182.67188 153.9375 182.67188Q154.4375 182.67188 154.8125 182.46875Q155.20312 182.25 155.42188 181.95312Q155.65625 181.64062 155.67188 181.34375L156.14062 181.875Q156.09375 182.10938 155.90625 182.42188Q155.73438 182.71875 155.42188 183.0Q155.125 183.26562 154.70312 183.45312Q154.29688 183.625 153.78125 183.625Q153.14062 183.625 152.65625 183.375Q152.17188 183.10938 151.90625 182.6875Q151.64062 182.26562 151.64062 181.73438Q151.64062 181.21875 151.82812 180.84375Q152.03125 180.45312 152.40625 180.1875Q152.78125 179.92188 153.3125 179.79688Q153.84375 179.65625 154.5 179.65625L155.75 179.65625ZM159.90625 178.15625L159.90625 183.5L158.82812 183.5L158.82812 177.15625L159.875 177.15625L159.90625 178.15625ZM161.89062 177.125L161.89062 178.125Q161.75 178.10938 161.625 178.09375Q161.51562 178.07812 161.35938 178.07812Q160.98438 178.07812 160.6875 178.20312Q160.40625 178.3125 160.20312 178.53125Q160.01562 178.73438 159.89062 179.03125Q159.78125 179.32812 159.75 179.67188L159.4375 179.84375Q159.4375 179.26562 159.54688 178.76562Q159.67188 178.26562 159.90625 177.875Q160.15625 177.48438 160.51562 177.26562Q160.89062 177.04688 161.40625 177.04688Q161.53125 177.04688 161.67188 177.07812Q161.82812 177.09375 161.89062 177.125ZM164.0 177.15625L164.0 183.5L162.92188 183.5L162.92188 177.15625L164.0 177.15625ZM162.82812 175.48438Q162.82812 175.21875 162.98438 175.03125Q163.15625 174.84375 163.46875 174.84375Q163.78125 174.84375 163.9375 175.03125Q164.10938 175.21875 164.10938 175.48438Q164.10938 175.73438 163.9375 175.92188Q163.78125 176.09375 163.46875 176.09375Q163.15625 176.09375 162.98438 175.92188Q162.82812 175.73438 162.82812 175.48438ZM166.90625 178.51562L166.90625 183.5L165.82812 183.5L165.82812 177.15625L166.85938 177.15625L166.90625 178.51562ZM166.65625 180.09375L166.20312 180.07812Q166.20312 179.42188 166.39062 178.875Q166.57812 178.3125 166.92188 177.90625Q167.26562 177.5 167.73438 177.28125Q168.20312 177.04688 168.78125 177.04688Q169.25 177.04688 169.625 177.17188Q170.0 177.29688 170.26562 177.57812Q170.53125 177.84375 170.67188 178.28125Q170.8125 178.71875 170.8125 179.34375L170.8125 183.5L169.71875 183.5L169.71875 179.32812Q169.71875 178.82812 169.57812 178.53125Q169.4375 178.23438 169.15625 178.09375Q168.875 177.95312 168.45312 177.95312Q168.04688 177.95312 167.71875 178.125Q167.39062 178.29688 167.15625 178.59375Q166.92188 178.89062 166.78125 179.28125Q166.65625 179.65625 166.65625 180.09375ZM176.9375 177.15625L177.92188 177.15625L177.92188 183.35938Q177.92188 184.20312 177.57812 184.79688Q177.23438 185.39062 176.625 185.6875Q176.03125 186.0 175.23438 186.0Q174.90625 186.0 174.45312 185.89062Q174.01562 185.79688 173.59375 185.54688Q173.17188 185.3125 172.89062 184.90625L173.45312 184.25Q173.85938 184.73438 174.28125 184.92188Q174.71875 185.10938 175.15625 185.10938Q175.67188 185.10938 176.04688 184.90625Q176.42188 184.71875 176.625 184.34375Q176.82812 183.96875 176.82812 183.42188L176.82812 178.54688L176.9375 177.15625ZM172.5625 180.40625L172.5625 180.28125Q172.5625 179.54688 172.73438 178.95312Q172.92188 178.35938 173.23438 177.9375Q173.5625 177.5 174.01562 177.28125Q174.48438 177.04688 175.07812 177.04688Q175.67188 177.04688 176.10938 177.25Q176.5625 177.45312 176.875 177.85938Q177.1875 178.25 177.375 178.8125Q177.5625 179.35938 177.625 180.0625L177.625 180.60938Q177.5625 181.29688 177.375 181.85938Q177.1875 182.42188 176.875 182.8125Q176.5625 183.20312 176.10938 183.42188Q175.65625 183.625 175.0625 183.625Q174.48438 183.625 174.03125 183.39062Q173.57812 183.14062 173.25 182.70312Q172.92188 182.26562 172.73438 181.6875Q172.5625 181.09375 172.5625 180.40625ZM173.65625 180.28125L173.65625 180.40625Q173.65625 180.875 173.75 181.29688Q173.84375 181.70312 174.04688 182.03125Q174.25 182.34375 174.5625 182.53125Q174.89062 182.70312 175.32812 182.70312Q175.85938 182.70312 176.20312 182.46875Q176.5625 182.23438 176.76562 181.85938Q176.98438 181.48438 177.09375 181.04688L177.09375 179.64062Q177.03125 179.3125 176.89062 179.01562Q176.76562 178.71875 176.5625 178.48438Q176.35938 178.23438 176.04688 178.09375Q175.75 177.95312 175.32812 177.95312Q174.89062 177.95312 174.5625 178.14062Q174.25 178.32812 174.04688 178.65625Q173.84375 178.96875 173.75 179.39062Q173.65625 179.79688 173.65625 180.28125Z" fill-rule="nonzero"/><path stroke="#cccccc" stroke-width="1.0" stroke-linecap="butt" d="M300.0 204.0L225.0 115.0" fill-rule="nonzero"/><path fill="#000000" d="M175.64062 94.78125L176.76562 94.78125Q176.67188 95.59375 176.29688 96.234375Q175.92188 96.875 175.23438 97.25Q174.5625 97.625 173.53125 97.625Q172.78125 97.625 172.17188 97.34375Q171.5625 97.046875 171.10938 96.53125Q170.67188 96.015625 170.4375 95.296875Q170.20312 94.5625 170.20312 93.65625L170.20312 92.8125Q170.20312 91.921875 170.4375 91.1875Q170.67188 90.453125 171.125 89.9375Q171.57812 89.40625 172.20312 89.125Q172.84375 88.84375 173.625 88.84375Q174.59375 88.84375 175.26562 89.21875Q175.9375 89.578125 176.29688 90.21875Q176.67188 90.859375 176.76562 91.703125L175.64062 91.703125Q175.5625 91.109375 175.32812 90.6875Q175.10938 90.25 174.70312 90.015625Q174.29688 89.78125 173.625 89.78125Q173.0625 89.78125 172.625 90.0Q172.20312 90.203125 171.90625 90.609375Q171.625 91.0 171.46875 91.5625Q171.32812 92.125 171.32812 92.796875L171.32812 93.65625Q171.32812 94.28125 171.45312 94.84375Q171.59375 95.390625 171.85938 95.8125Q172.125 96.21875 172.54688 96.46875Q172.96875 96.703125 173.53125 96.703125Q174.25 96.703125 174.67188 96.46875Q175.10938 96.234375 175.32812 95.8125Q175.54688 95.390625 175.64062 94.78125ZM178.04688 94.40625L178.04688 94.265625Q178.04688 93.578125 178.23438 93.0Q178.4375 92.40625 178.8125 91.96875Q179.1875 91.53125 179.71875 91.296875Q180.25 91.046875 180.92188 91.046875Q181.57812 91.046875 182.10938 91.296875Q182.65625 91.53125 183.03125 91.96875Q183.40625 92.40625 183.60938 93.0Q183.8125 93.578125 183.8125 94.265625L183.8125 94.40625Q183.8125 95.078125 183.60938 95.671875Q183.40625 96.25 183.03125 96.6875Q182.65625 97.125 182.125 97.375Q181.59375 97.625 180.92188 97.625Q180.26562 97.625 179.71875 97.375Q179.1875 97.125 178.8125 96.6875Q178.4375 96.25 178.23438 95.671875Q178.04688 95.078125 178.04688 94.40625ZM179.125 94.265625L179.125 94.40625Q179.125 94.875 179.23438 95.296875Q179.34375 95.71875 179.5625 96.046875Q179.79688 96.359375 180.14062 96.546875Q180.48438 96.71875 180.92188 96.71875Q181.375 96.71875 181.70312 96.546875Q182.04688 96.359375 182.26562 96.046875Q182.5 95.71875 182.60938 95.296875Q182.71875 94.875 182.71875 94.40625L182.71875 94.265625Q182.71875 93.796875 182.60938 93.375Q182.5 92.953125 182.26562 92.640625Q182.04688 92.3125 181.70312 92.125Q181.375 91.9375 180.92188 91.9375Q180.46875 91.9375 180.125 92.125Q179.79688 92.3125 179.5625 92.640625Q179.34375 92.953125 179.23438 93.375Q179.125 93.796875 179.125 94.265625ZM186.40625 92.515625L186.40625 97.5L185.32812 97.5L185.32812 91.15625L186.35938 91.15625L186.40625 92.515625ZM186.15625 94.09375L185.70312 94.078125Q185.70312 93.421875 185.89062 92.875Q186.07812 92.3125 186.42188 91.90625Q186.76562 91.5 187.23438 91.28125Q187.70312 91.046875 188.28125 91.046875Q188.75 91.046875 189.125 91.171875Q189.5 91.296875 189.76562 91.578125Q190.03125 91.84375 190.17188 92.28125Q190.3125 92.71875 190.3125 93.34375L190.3125 97.5L189.21875 97.5L189.21875 93.328125Q189.21875 92.828125 189.07812 92.53125Q188.9375 92.234375 188.65625 92.09375Q188.375 91.953125 187.95312 91.953125Q187.54688 91.953125 187.21875 92.125Q186.89062 92.296875 186.65625 92.59375Q186.42188 92.890625 186.28125 93.28125Q186.15625 93.65625 186.15625 94.09375ZM194.98438 91.15625L194.98438 91.984375L191.54688 91.984375L191.54688 91.15625L194.98438 91.15625ZM192.71875 89.625L193.79688 89.625L193.79688 95.921875Q193.79688 96.25 193.89062 96.421875Q194.0 96.578125 194.15625 96.640625Q194.3125 96.6875 194.5 96.6875Q194.625 96.6875 194.76562 96.65625Q194.92188 96.625 195.0 96.609375L195.01562 97.5Q194.875 97.546875 194.67188 97.578125Q194.46875 97.625 194.17188 97.625Q193.78125 97.625 193.4375 97.46875Q193.10938 97.296875 192.90625 96.9375Q192.71875 96.5625 192.71875 95.921875L192.71875 89.625ZM197.40625 92.15625L197.40625 97.5L196.32812 97.5L196.32812 91.15625L197.375 91.15625L197.40625 92.15625ZM199.39062 91.125L199.39062 92.125Q199.25 92.109375 199.125 92.09375Q199.01562 92.078125 198.85938 92.078125Q198.48438 92.078125 198.1875 92.203125Q197.90625 92.3125 197.70312 92.53125Q197.51562 92.734375 197.39062 93.03125Q197.28125 93.328125 197.25 93.671875L196.9375 93.84375Q196.9375 93.265625 197.04688 92.765625Q197.17188 92.265625 197.40625 91.875Q197.65625 91.484375 198.01562 91.265625Q198.39062 91.046875 198.90625 91.046875Q199.03125 91.046875 199.17188 91.078125Q199.32812 91.09375 199.39062 91.125ZM200.04688 94.40625L200.04688 94.265625Q200.04688 93.578125 200.23438 93.0Q200.4375 92.40625 200.8125 91.96875Q201.1875 91.53125 201.71875 91.296875Q202.25 91.046875 202.92188 91.046875Q203.57812 91.046875 204.10938 91.296875Q204.65625 91.53125 205.03125 91.96875Q205.40625 92.40625 205.60938 93.0Q205.8125 93.578125 205.8125 94.265625L205.8125 94.40625Q205.8125 95.078125 205.60938 95.671875Q205.40625 96.25 205.03125 96.6875Q204.65625 97.125 204.125 97.375Q203.59375 97.625 202.92188 97.625Q202.26562 97.625 201.71875 97.375Q201.1875 97.125 200.8125 96.6875Q200.4375 96.25 200.23438 95.671875Q200.04688 95.078125 200.04688 94.40625ZM201.125 94.265625L201.125 94.40625Q201.125 94.875 201.23438 95.296875Q201.34375 95.71875 201.5625 96.046875Q201.79688 96.359375 202.14062 96.546875Q202.48438 96.71875 202.92188 96.71875Q203.375 96.71875 203.70312 96.546875Q204.04688 96.359375 204.26562 96.046875Q204.5 95.71875 204.60938 95.296875Q204.71875 94.875 204.71875 94.40625L204.71875 94.265625Q204.71875 93.796875 204.60938 93.375Q204.5 92.953125 204.26562 92.640625Q204.04688 92.3125 203.70312 92.125Q203.375 91.9375 202.92188 91.9375Q202.46875 91.9375 202.125 92.125Q201.79688 92.3125 201.5625 92.640625Q201.34375 92.953125 201.23438 93.375Q201.125 93.796875 201.125 94.265625ZM208.5 88.5L208.5 97.5L207.42188 97.5L207.42188 88.5L208.5 88.5ZM214.625 88.96875L214.625 97.5L213.48438 97.5L213.48438 88.96875L214.625 88.96875ZM218.20312 92.8125L218.20312 93.734375L214.375 93.734375L214.375 92.8125L218.20312 92.8125ZM218.78125 88.96875L218.78125 89.890625L214.375 89.890625L214.375 88.96875L218.78125 88.96875ZM221.5 88.5L221.5 97.5L220.42188 97.5L220.42188 88.5L221.5 88.5ZM223.04688 94.40625L223.04688 94.265625Q223.04688 93.578125 223.23438 93.0Q223.4375 92.40625 223.8125 91.96875Q224.1875 91.53125 224.71875 91.296875Q225.25 91.046875 225.92188 91.046875Q226.57812 91.046875 227.10938 91.296875Q227.65625 91.53125 228.03125 91.96875Q228.40625 92.40625 228.60938 93.0Q228.8125 93.578125 228.8125 94.265625L228.8125 94.40625Q228.8125 95.078125 228.60938 95.671875Q228.40625 96.25 228.03125 96.6875Q227.65625 97.125 227.125 97.375Q226.59375 97.625 225.92188 97.625Q225.26562 97.625 224.71875 97.375Q224.1875 97.125 223.8125 96.6875Q223.4375 96.25 223.23438 95.671875Q223.04688 95.078125 223.04688 94.40625ZM224.125 94.265625L224.125 94.40625Q224.125 94.875 224.23438 95.296875Q224.34375 95.71875 224.5625 96.046875Q224.79688 96.359375 225.14062 96.546875Q225.48438 96.71875 225.92188 96.71875Q226.375 96.71875 226.70312 96.546875Q227.04688 96.359375 227.26562 96.046875Q227.5 95.71875 227.60938 95.296875Q227.71875 94.875 227.71875 94.40625L227.71875 94.265625Q227.71875 93.796875 227.60938 93.375Q227.5 92.953125 227.26562 92.640625Q227.04688 92.3125 226.70312 92.125Q226.375 91.9375 225.92188 91.9375Q225.46875 91.9375 225.125 92.125Q224.79688 92.3125 224.5625 92.640625Q224.34375 92.953125 224.23438 93.375Q224.125 93.796875 224.125 94.265625ZM231.9375 96.375L233.5625 91.15625L234.28125 91.15625L234.14062 92.203125L232.48438 97.5L231.78125 97.5L231.9375 96.375ZM230.84375 91.15625L232.21875 96.4375L232.32812 97.5L231.59375 97.5L229.75 91.15625L230.84375 91.15625ZM235.82812 96.390625L237.15625 91.15625L238.23438 91.15625L236.39062 97.5L235.67188 97.5L235.82812 96.390625ZM234.4375 91.15625L236.03125 96.28125L236.20312 97.5L235.51562 97.5L233.8125 92.1875L233.67188 91.15625L234.4375 91.15625ZM243.01562 95.8125Q243.01562 95.578125 242.90625 95.375Q242.8125 95.171875 242.5 95.015625Q242.1875 94.84375 241.5625 94.71875Q241.03125 94.609375 240.60938 94.46875Q240.1875 94.3125 239.89062 94.09375Q239.59375 93.875 239.4375 93.578125Q239.28125 93.28125 239.28125 92.890625Q239.28125 92.515625 239.4375 92.1875Q239.60938 91.84375 239.90625 91.59375Q240.21875 91.328125 240.65625 91.1875Q241.09375 91.046875 241.625 91.046875Q242.39062 91.046875 242.92188 91.3125Q243.46875 91.578125 243.75 92.03125Q244.03125 92.484375 244.03125 93.015625L242.95312 93.015625Q242.95312 92.765625 242.79688 92.515625Q242.64062 92.265625 242.34375 92.109375Q242.04688 91.9375 241.625 91.9375Q241.17188 91.9375 240.89062 92.078125Q240.60938 92.203125 240.48438 92.421875Q240.35938 92.625 240.35938 92.859375Q240.35938 93.046875 240.42188 93.1875Q240.48438 93.3125 240.64062 93.4375Q240.79688 93.546875 241.07812 93.65625Q241.375 93.75 241.82812 93.84375Q242.60938 94.015625 243.10938 94.265625Q243.60938 94.515625 243.85938 94.875Q244.10938 95.21875 244.10938 95.734375Q244.10938 96.15625 243.92188 96.5Q243.75 96.84375 243.42188 97.09375Q243.10938 97.34375 242.65625 97.484375Q242.20312 97.625 241.65625 97.625Q240.8125 97.625 240.23438 97.328125Q239.65625 97.015625 239.35938 96.546875Q239.0625 96.0625 239.0625 95.546875L240.14062 95.546875Q240.17188 95.984375 240.40625 96.25Q240.64062 96.515625 240.96875 96.625Q241.3125 96.71875 241.65625 96.71875Q242.09375 96.71875 242.39062 96.609375Q242.70312 96.484375 242.85938 96.28125Q243.01562 96.078125 243.01562 95.8125Z" fill-rule="nonzero"/><path stroke="#cccccc" stroke-width="1.0" stroke-linecap="butt" d="M300.0 204.0L300.0 87.0" fill-rule="nonzero"/><path stroke="#ff0000" stroke-width="1.0" stroke-linecap="butt" d="M300.0 116.0L366.0 126.0L415.0 184.0L363.0 240.0L320.0 259.0L270.0 286.0L237.0 240.0L221.0 190.0L258.0 154.0Z" fill-rule="nonzero"/><path fill="#000000" d="M29.550013 221.30833L20.956263 221.30833L20.956263 220.16771L28.534388 220.16771L28.534388 215.93333L29.550013 215.93333L29.550013 221.30833ZM28.784388 210.32396Q29.284388 210.91771 29.487513 211.46458Q29.690638 211.99583 29.690638 212.62083Q29.690638 213.65208 29.190638 214.19896Q28.690638 214.74583 27.909388 214.74583Q27.456263 214.74583 27.081263 214.54271Q26.690638 214.33958 26.471888 213.99583Q26.237513 213.65208 26.128138 213.23021Q26.034388 212.93333 25.956263 212.29271Q25.815638 211.02708 25.596888 210.41771Q25.378138 210.41771 25.331263 210.41771Q24.675013 210.41771 24.409388 210.71458Q24.065638 211.12083 24.065638 211.91771Q24.065638 212.65208 24.331263 213.01146Q24.581263 213.37083 25.237513 213.54271L25.096888 214.57396Q24.440638 214.43333 24.034388 214.10521Q23.628138 213.77708 23.409388 213.16771Q23.190638 212.55833 23.190638 211.76146Q23.190638 210.96458 23.378138 210.46458Q23.565638 209.96458 23.846888 209.73021Q24.128138 209.49583 24.565638 209.40208Q24.831263 209.35521 25.534388 209.35521L26.940638 209.35521Q28.409388 209.35521 28.800013 209.29271Q29.190638 209.21458 29.550013 209.01146L29.550013 210.12083Q29.221888 210.27708 28.784388 210.32396ZM26.425013 210.41771Q26.659388 210.99583 26.831263 212.13646Q26.925013 212.79271 27.050013 213.05833Q27.159388 213.32396 27.378138 213.48021Q27.596888 213.62083 27.878138 213.62083Q28.300013 213.62083 28.581263 213.30833Q28.862513 212.98021 28.862513 212.37083Q28.862513 211.76146 28.596888 211.29271Q28.331263 210.80833 27.862513 210.58958Q27.503138 210.41771 26.815638 210.41771L26.425013 210.41771ZM31.940638 207.43333L30.956263 207.55833Q31.050013 207.21458 31.050013 206.94896Q31.050013 206.60521 30.925013 206.40208Q30.815638 206.18333 30.612513 206.04271Q30.440638 205.94896 29.815638 205.71458Q29.737513 205.69896 29.565638 205.62083L23.331263 207.99583L23.331263 206.85521L26.925013 205.55833Q27.612513 205.30833 28.378138 205.10521Q27.643763 204.91771 26.956263 204.66771L23.331263 203.33958L23.331263 202.29271L29.659388 204.65208Q30.675013 205.04271 31.065638 205.24583Q31.596888 205.52708 31.831263 205.90208Q32.08126 206.26146 32.08126 206.76146Q32.08126 207.05833 31.940638 207.43333ZM27.550013 198.13646L27.675013 197.04271Q28.628138 197.29271 29.159388 197.99583Q29.690638 198.69896 29.690638 199.77708Q29.690638 201.13646 28.846888 201.94896Q28.003138 202.74583 26.487513 202.74583Q24.925013 202.74583 24.065638 201.93333Q23.190638 201.12083 23.190638 199.83958Q23.190638 198.58958 24.034388 197.80833Q24.878138 197.01146 26.425013 197.01146Q26.518763 197.01146 26.706263 197.01146L26.706263 201.65208Q27.737513 201.58958 28.284388 201.07396Q28.815638 200.55833 28.815638 199.77708Q28.815638 199.19896 28.518763 198.79271Q28.206263 198.37083 27.550013 198.13646ZM25.846888 201.58958L25.846888 198.12083Q25.050013 198.18333 24.659388 198.51146Q24.050013 199.02708 24.050013 199.82396Q24.050013 200.55833 24.534388 201.05833Q25.018763 201.54271 25.846888 201.58958ZM29.550013 195.40208L23.331263 195.40208L23.331263 194.44896L24.268763 194.44896Q23.612513 194.08958 23.409388 193.79271Q23.190638 193.48021 23.190638 193.10521Q23.190638 192.57396 23.518763 192.02708L24.503138 192.38646Q24.268763 192.77708 24.268763 193.15208Q24.268763 193.51146 24.487513 193.79271Q24.690638 194.05833 25.065638 194.16771Q25.628138 194.35521 26.284388 194.35521L29.550013 194.35521L29.550013 195.40208ZM27.690638 191.80833L27.534388 190.77708Q28.159388 190.68333 28.487513 190.29271Q28.815638 189.88646 28.815638 189.15208Q28.815638 188.43333 28.534388 188.08958Q28.237513 187.73021 27.831263 187.73021Q27.471888 187.73021 27.268763 188.04271Q27.128138 188.26146 26.909388 189.12083Q26.612513 190.27708 26.409388 190.73021Q26.190638 191.16771 25.815638 191.40208Q25.440638 191.63646 24.971888 191.63646Q24.565638 191.63646 24.206263 191.44896Q23.846888 191.26146 23.612513 190.93333Q23.440638 190.68333 23.315638 190.26146Q23.190638 189.83958 23.190638 189.33958Q23.190638 188.62083 23.409388 188.07396Q23.612513 187.51146 23.971888 187.24583Q24.331263 186.98021 24.925013 186.88646L25.065638 187.91771Q24.596888 187.98021 24.331263 188.32396Q24.050013 188.65208 24.050013 189.27708Q24.050013 189.99583 24.300013 190.30833Q24.534388 190.62083 24.862513 190.62083Q25.065638 190.62083 25.221888 190.49583Q25.393763 190.35521 25.503138 190.08958Q25.565638 189.93333 25.768763 189.15208Q26.081263 188.02708 26.268763 187.58958Q26.456263 187.15208 26.815638 186.90208Q27.175013 186.65208 27.721888 186.65208Q28.253138 186.65208 28.721888 186.96458Q29.175013 187.26146 29.440638 187.83958Q29.690638 188.41771 29.690638 189.15208Q29.690638 190.37083 29.190638 191.01146Q28.675013 191.63646 27.690638 191.80833Z" fill-rule="nonzero"/><path fill="#757575" d="M20.01875 37.55L20.01875 23.2375L21.909374 23.2375L21.909374 35.8625L28.95625 35.8625L28.95625 37.55L20.01875 37.55ZM37.64375 36.26875Q36.659374 37.096874 35.753124 37.440624Q34.846874 37.784374 33.815624 37.784374Q32.1125 37.784374 31.190624 36.95625Q30.26875 36.1125 30.26875 34.815624Q30.26875 34.05 30.6125 33.425Q30.971874 32.8 31.534374 32.425Q32.096874 32.034374 32.8 31.83125Q33.315624 31.70625 34.3625 31.565624Q36.4875 31.315624 37.4875 30.971874Q37.503124 30.6125 37.503124 30.503124Q37.503124 29.440624 37.003124 28.9875Q36.33125 28.39375 35.003124 28.39375Q33.753124 28.39375 33.159374 28.83125Q32.58125 29.26875 32.3 30.378124L30.58125 30.14375Q30.815624 29.034374 31.346874 28.3625Q31.878124 27.675 32.89375 27.315624Q33.909374 26.940624 35.253124 26.940624Q36.58125 26.940624 37.409374 27.253124Q38.2375 27.565624 38.628124 28.05Q39.01875 28.51875 39.175 29.2375Q39.26875 29.690624 39.26875 30.8625L39.26875 33.20625Q39.26875 35.659374 39.378124 36.315624Q39.4875 36.95625 39.83125 37.55L37.9875 37.55Q37.721874 37.003124 37.64375 36.26875ZM37.4875 32.346874Q36.534374 32.7375 34.6125 33.003124Q33.534374 33.159374 33.08125 33.3625Q32.64375 33.55 32.39375 33.925Q32.14375 34.3 32.14375 34.76875Q32.14375 35.471874 32.675 35.940624Q33.20625 36.409374 34.2375 36.409374Q35.253124 36.409374 36.034374 35.971874Q36.83125 35.51875 37.20625 34.753124Q37.4875 34.14375 37.4875 32.9875L37.4875 32.346874ZM41.784374 41.55L41.596874 39.89375Q42.175 40.05 42.596874 40.05Q43.190624 40.05 43.534374 39.846874Q43.89375 39.659374 44.1125 39.315624Q44.284374 39.05 44.659374 38.003124Q44.70625 37.846874 44.815624 37.565624L40.878124 27.175L42.76875 27.175L44.925 33.190624Q45.346874 34.33125 45.675 35.58125Q45.9875 34.378124 46.39375 33.221874L48.6125 27.175L50.378124 27.175L46.425 37.721874Q45.8 39.440624 45.440624 40.08125Q44.971874 40.95625 44.3625 41.346874Q43.76875 41.753124 42.925 41.753124Q42.409374 41.753124 41.784374 41.55ZM58.971874 34.20625L60.784374 34.440624Q60.3625 36.01875 59.190624 36.909374Q58.034374 37.784374 56.221874 37.784374Q53.95625 37.784374 52.6125 36.39375Q51.284374 34.9875 51.284374 32.45625Q51.284374 29.83125 52.628124 28.39375Q53.971874 26.940624 56.128124 26.940624Q58.20625 26.940624 59.51875 28.3625Q60.846874 29.76875 60.846874 32.346874Q60.846874 32.503124 60.83125 32.815624L53.096874 32.815624Q53.190624 34.51875 54.065624 35.425Q54.940624 36.33125 56.2375 36.33125Q57.20625 36.33125 57.878124 35.83125Q58.565624 35.315624 58.971874 34.20625ZM53.190624 31.3625L58.9875 31.3625Q58.878124 30.065624 58.33125 29.409374Q57.4875 28.39375 56.14375 28.39375Q54.940624 28.39375 54.1125 29.20625Q53.284374 30.003124 53.190624 31.3625ZM62.846874 37.55L62.846874 27.175L64.425 27.175L64.425 28.753124Q65.03438 27.64375 65.55 27.3Q66.06563 26.940624 66.675 26.940624Q67.56563 26.940624 68.4875 27.503124L67.87813 29.14375Q67.2375 28.753124 66.59688 28.753124Q66.01875 28.753124 65.55 29.1125Q65.09688 29.45625 64.89375 30.065624Q64.6125 31.003124 64.6125 32.1125L64.6125 37.55L62.846874 37.55ZM69.15938 34.45625L70.90938 34.175Q71.05 35.221874 71.72188 35.784374Q72.39375 36.33125 73.59688 36.33125Q74.8 36.33125 75.37813 35.846874Q75.97188 35.346874 75.97188 34.690624Q75.97188 34.096874 75.45625 33.753124Q75.09688 33.51875 73.65938 33.159374Q71.72188 32.659374 70.97188 32.315624Q70.2375 31.95625 69.84688 31.33125Q69.45625 30.690624 69.45625 29.925Q69.45625 29.2375 69.76875 28.64375Q70.09688 28.05 70.64375 27.659374Q71.05 27.3625 71.75313 27.159374Q72.47188 26.940624 73.28438 26.940624Q74.50313 26.940624 75.425 27.3Q76.34688 27.64375 76.78438 28.253124Q77.22188 28.846874 77.39375 29.846874L75.675 30.08125Q75.55 29.284374 74.9875 28.846874Q74.425 28.39375 73.40938 28.39375Q72.19063 28.39375 71.675 28.8Q71.15938 29.190624 71.15938 29.721874Q71.15938 30.065624 71.37813 30.346874Q71.58125 30.628124 72.05 30.815624Q72.31563 30.909374 73.59688 31.253124Q75.47188 31.753124 76.20625 32.08125Q76.94063 32.39375 77.3625 33.003124Q77.78438 33.596874 77.78438 34.503124Q77.78438 35.378124 77.26875 36.159374Q76.75313 36.940624 75.78438 37.3625Q74.81563 37.784374 73.59688 37.784374Q71.58125 37.784374 70.51875 36.940624Q69.45625 36.096874 69.15938 34.45625Z" fill-rule="nonzero"/></svg>